<svg width="39" height="39" viewBox="0 0 39 39" fill="none" xmlns="http://www.w3.org/2000/svg">
<g opacity="0.2">
<path d="M7.3125 7.3125L5.6875 11.375V15.4375L2.4375 16.25V19.5L4.875 22.75L6.5 23.5625L4.0625 26V27.625L6.5 29.25H9.75L13 28.4375L13.8125 26.8125L8.9375 23.5625L8.125 19.5V17.0625L10.5625 13.8125V10.5625L9.75 8.125L7.3125 7.3125Z" fill="#05972E"/>
<path d="M31.6875 7.3125L33.3125 11.375V15.4375L36.5625 16.25V19.5L34.125 22.75L32.5 23.5625L34.9375 26V27.625L32.5 29.25H29.25L26 28.4375L25.1875 26.8125L30.0625 23.5625L30.875 19.5V17.0625L28.4375 13.8125V10.5625L29.25 8.125L31.6875 7.3125Z" fill="#05972E"/>
</g>
<path fill-rule="evenodd" clip-rule="evenodd" d="M4.87498 9.90937C4.05387 11.3316 3.8313 12.9351 4.12913 14.4283C3.55444 14.3498 2.96262 14.3478 2.36746 14.4303C2.10177 14.4671 1.83541 14.5208 1.56963 14.592L0 15.0126L1.26175 19.7215C1.7461 21.5291 2.94656 22.9537 4.47611 23.7716C3.87752 24.1675 3.33802 24.6673 2.88727 25.2632C2.72544 25.4771 2.57505 25.7034 2.43747 25.9417L1.62497 27.349L5.84684 29.7865C8.71745 31.4438 12.3268 30.6627 14.2762 28.0858C14.3382 28.0039 14.3984 27.9202 14.457 27.8347C14.8124 28.2005 15.0312 28.6997 15.0312 29.25C15.0312 30.3718 14.1218 31.2812 13 31.2812H11.375V33.7188H13C15.468 33.7188 17.4687 31.718 17.4687 29.25C17.4687 26.9407 15.717 25.0405 13.4698 24.8057L11.3166 23.5625C11.0847 23.4286 10.8479 23.3106 10.6076 23.2082L9.53047 19.1882C9.46645 18.9493 9.38991 18.717 9.30176 18.492L11.0989 15.3792C12.7563 12.5086 11.9752 8.89925 9.39828 6.9498C9.18436 6.78797 8.95807 6.63758 8.71978 6.5L7.31248 5.6875L4.87498 9.90937ZM7.80989 16.201L8.98801 14.1604C9.97071 12.4583 9.58173 10.3407 8.16404 9.08756L6.98592 11.1281C6.00322 12.8302 6.3922 14.9478 7.80989 16.201ZM7.17603 19.8191L7.78587 22.095C5.89731 22.2114 4.12487 20.9891 3.61619 19.0906L3.00635 16.8147C4.89491 16.6983 6.66735 17.9207 7.17603 19.8191ZM10.0979 25.6734L12.1384 26.8516C10.8853 28.2692 8.76768 28.6582 7.06559 27.6755L5.02503 26.4974C6.27817 25.0797 8.39579 24.6907 10.0979 25.6734Z" fill="#05972E"/>
<path fill-rule="evenodd" clip-rule="evenodd" d="M24.7237 28.0858C26.6732 30.6627 30.2825 31.4438 33.1531 29.7865L37.375 27.349L36.5625 25.9417C36.4249 25.7034 36.2745 25.4771 36.1127 25.2632C35.6619 24.6673 35.1224 24.1675 34.5238 23.7716C36.0534 22.9536 37.2538 21.5291 37.7382 19.7215L38.9999 15.0126L37.4303 14.592C37.1645 14.5208 36.8982 14.4671 36.6325 14.4303C36.0373 14.3478 35.4455 14.3498 34.8708 14.4283C35.1686 12.9351 34.9461 11.3316 34.1249 9.90937L31.6874 5.6875L30.2802 6.5C30.0419 6.63758 29.8156 6.78797 29.6017 6.9498C27.0248 8.89925 26.2436 12.5086 27.901 15.3792L29.6982 18.492C29.61 18.717 29.5335 18.9493 29.4695 19.1882L28.3923 23.2082C28.152 23.3106 27.9152 23.4286 27.6833 23.5625L25.5301 24.8057C23.2829 25.0405 21.5312 26.9407 21.5312 29.25C21.5312 31.718 23.5319 33.7188 26 33.7188H27.625V31.2812H26C24.8781 31.2812 23.9687 30.3718 23.9687 29.25C23.9687 28.6997 24.1876 28.2005 24.543 27.8347C24.6015 27.9202 24.6618 28.0039 24.7237 28.0858ZM26.8615 26.8516L28.9021 25.6734C30.6041 24.6907 32.7218 25.0797 33.9749 26.4974L31.9343 27.6755C30.2323 28.6582 28.1146 28.2692 26.8615 26.8516ZM31.8239 19.8191L31.2141 22.095C33.1026 22.2114 34.8751 20.9891 35.3837 19.0906L35.9936 16.8147C34.105 16.6983 32.3326 17.9207 31.8239 19.8191ZM31.19 16.201L30.0119 14.1604C29.0292 12.4583 29.4182 10.3407 30.8359 9.08756L32.014 11.1281C32.9967 12.8302 32.6077 14.9478 31.19 16.201Z" fill="#05972E"/>
</svg>
