<svg width="108" height="41" viewBox="0 0 108 41" fill="none" xmlns="http://www.w3.org/2000/svg">
<path d="M29.655 17.3636C29.655 18.6252 29.655 19.256 29.325 19.7373C28.995 20.2186 28.4146 20.4344 27.2537 20.866L16.4483 24.883C16.2161 24.9693 16.1 25.0125 16.034 25.1087C15.968 25.205 15.968 25.3312 15.968 25.5835V27.6771C15.968 28.9388 15.968 29.5697 15.6379 30.051C15.3079 30.5324 14.7274 30.7481 13.5664 31.1796L10.983 32.1399C10.7602 32.2227 10.6488 32.2641 10.571 32.2084C10.4932 32.1528 10.4932 32.0317 10.4932 31.7896V23.7566C10.4932 22.4949 10.4932 21.8641 10.8232 21.3827C11.1532 20.9014 11.7337 20.6856 12.8947 20.2541L23.6999 16.2379C23.9321 16.1516 24.0482 16.1085 24.1142 16.0122C24.1802 15.9159 24.1802 15.7898 24.1802 15.5374V13.4039C24.1802 12.1423 24.1802 11.5114 24.5103 11.0301C24.8403 10.5487 25.4208 10.333 26.5817 9.90145L29.1652 8.94117C29.388 8.85836 29.4994 8.81696 29.5772 8.8726C29.655 8.92825 29.655 9.04931 29.655 9.29142V17.3636Z" fill="#05972E"/>
<path d="M29.655 31.7956C29.655 32.0377 29.655 32.1588 29.5772 32.2144C29.4994 32.2701 29.388 32.2287 29.1652 32.1459L26.5818 31.1856C25.4208 30.7541 24.8403 30.5384 24.5103 30.057C24.1802 29.5757 24.1802 28.9448 24.1802 27.6831V25.8304C24.1802 24.5687 24.1802 23.9378 24.5103 23.4565C24.8403 22.9751 25.4208 22.7594 26.5818 22.3279L29.1652 21.3676C29.388 21.2848 29.4994 21.2434 29.5772 21.2991C29.655 21.3547 29.655 21.4758 29.655 21.7179V31.7956Z" fill="#05972E"/>
<path d="M10.4932 19.4024C10.4932 19.6445 10.4932 19.7656 10.571 19.8212C10.6488 19.8769 10.7602 19.8355 10.983 19.7527L13.5664 18.7925C14.7274 18.3609 15.3079 18.1452 15.6379 17.6638C15.968 17.1825 15.968 16.5517 15.968 15.29V13.4372C15.968 12.1755 15.968 11.5446 15.6379 11.0633C15.3079 10.582 14.7274 10.3662 13.5664 9.93469L10.983 8.97447C10.7602 8.89166 10.6488 8.85026 10.571 8.9059C10.4932 8.96155 10.4932 9.08261 10.4932 9.32472V19.4024Z" fill="#05972E"/>
<path d="M36.5957 12.1664H40.0067V18.7702H43.9863V12.1664H47.3973V29.438H43.9863V21.7698H40.0067V29.438H36.5957V12.1664Z" fill="#181818"/>
<path d="M56.1064 22.9309L54.472 15.1659H54.4246L52.7902 22.9309H56.1064ZM56.5565 12.1664L61.0335 29.438H57.4803L56.6986 25.7853H52.198L51.4163 29.438H47.8631L52.3401 12.1664H56.5565Z" fill="#181818"/>
<path d="M64.2471 24.0436V24.5516C64.2471 24.9548 64.2786 25.3257 64.3418 25.6644C64.405 25.9869 64.5234 26.2611 64.6971 26.4868C64.8708 26.7126 65.0998 26.89 65.3841 27.019C65.6841 27.148 66.0552 27.2125 66.4974 27.2125C67.0185 27.2125 67.4844 27.0432 67.895 26.7045C68.3214 26.3498 68.5345 25.8095 68.5345 25.0838C68.5345 24.6968 68.4793 24.3662 68.3687 24.092C68.274 23.8017 68.1082 23.5437 67.8713 23.3179C67.6344 23.0922 67.3186 22.8906 66.9238 22.7132C66.5448 22.5197 66.071 22.3262 65.5025 22.1326C64.7445 21.8746 64.0891 21.5924 63.5364 21.286C62.9837 20.9796 62.5179 20.6248 62.1389 20.2216C61.7756 19.8023 61.5072 19.3266 61.3335 18.7944C61.1598 18.2461 61.0729 17.6172 61.0729 16.9076C61.0729 15.1982 61.5388 13.9242 62.4705 13.0856C63.4022 12.247 64.6813 11.8277 66.3079 11.8277C67.0659 11.8277 67.7607 11.9164 68.3924 12.0938C69.0399 12.2551 69.5926 12.5292 70.0506 12.9162C70.5243 13.2872 70.8875 13.771 71.1402 14.3676C71.4087 14.9482 71.5429 15.6497 71.5429 16.4722V16.956H68.274C68.274 16.1335 68.1318 15.5046 67.8476 15.0692C67.5633 14.6176 67.0896 14.3918 66.4263 14.3918C66.0473 14.3918 65.7315 14.4483 65.4788 14.5612C65.2262 14.6741 65.0209 14.8273 64.8629 15.0208C64.7208 15.1982 64.6182 15.4078 64.555 15.6497C64.5076 15.8916 64.4839 16.1416 64.4839 16.3996C64.4839 16.9318 64.5945 17.3833 64.8156 17.7542C65.0367 18.109 65.5104 18.4396 66.2368 18.746L68.8662 19.9072C69.5136 20.1974 70.0427 20.5038 70.4532 20.8264C70.8638 21.1328 71.1876 21.4714 71.4244 21.8424C71.6771 22.1971 71.8508 22.5922 71.9456 23.0277C72.0403 23.4631 72.0877 23.9469 72.0877 24.4791C72.0877 26.3014 71.5666 27.6318 70.5243 28.4704C69.4978 29.2929 68.0608 29.7041 66.2131 29.7041C64.2865 29.7041 62.9048 29.2768 62.0678 28.422C61.2466 27.5673 60.836 26.3417 60.836 24.7452V24.0436H64.2471Z" fill="#181818"/>
<path d="M76.4831 26.8739H77.8096C78.6308 26.8739 79.294 26.6884 79.7994 26.3175C80.3047 25.9466 80.5574 25.2612 80.5574 24.2614C80.5574 23.7614 80.4863 23.3502 80.3442 23.0277C80.2178 22.689 80.0362 22.4229 79.7994 22.2294C79.5783 22.0198 79.3098 21.8746 78.994 21.794C78.6781 21.7133 78.3307 21.673 77.9517 21.673H76.4831V26.8739ZM76.4831 19.254H77.4543C78.4018 19.254 79.0887 19.0847 79.5151 18.746C79.9573 18.3913 80.1784 17.8026 80.1784 16.9802C80.1784 16.1577 79.981 15.5771 79.5862 15.2385C79.1914 14.8998 78.5676 14.7305 77.7148 14.7305H76.4831V19.254ZM73.072 12.1664H78.7808C79.4756 12.1664 80.1152 12.2389 80.6995 12.3841C81.2996 12.5292 81.8128 12.7711 82.2392 13.1098C82.6656 13.4484 82.9972 13.9 83.2341 14.4644C83.471 15.0288 83.5894 15.7223 83.5894 16.5447C83.5894 17.4801 83.3762 18.2864 82.9498 18.9637C82.5234 19.6249 81.8839 20.0765 81.0311 20.3184V20.3668C81.9786 20.4958 82.7287 20.907 83.2815 21.6005C83.8342 22.2939 84.1105 23.2212 84.1105 24.3823C84.1105 25.0596 84.0237 25.7047 83.85 26.3175C83.6762 26.9303 83.3762 27.4706 82.9498 27.9382C82.5392 28.3898 81.9944 28.7526 81.3154 29.0268C80.6521 29.3009 79.823 29.438 78.8282 29.438H73.072V12.1664Z" fill="#181818"/>
<path d="M92.5828 22.9309L90.9483 15.1659H90.9009L89.2665 22.9309H92.5828ZM93.0328 12.1664L97.5098 29.438H93.9567L93.175 25.7853H88.6743L87.8926 29.438H84.3394L88.8164 12.1664H93.0328Z" fill="#181818"/>
</svg>
