<svg width="170" height="53" viewBox="0 0 170 53" fill="none" xmlns="http://www.w3.org/2000/svg">
<path d="M39.015 20.6094C39.015 22.9788 39.015 24.1635 38.3916 25.0674C37.7683 25.9714 36.6719 26.3766 34.4791 27.1871L14.0688 34.7313C13.6303 34.8934 13.411 34.9745 13.2863 35.1553C13.1616 35.3361 13.1616 35.573 13.1616 36.0469V39.9788C13.1616 42.3484 13.1616 43.5331 12.5382 44.4371C11.9148 45.3411 10.8183 45.7463 8.62536 46.5567L3.74553 48.36C3.32471 48.5155 3.1143 48.5933 2.9673 48.4888C2.82031 48.3843 2.82031 48.1569 2.82031 47.7022V32.6159C2.82031 30.2464 2.82031 29.0616 3.44371 28.1576C4.06712 27.2537 5.1636 26.8484 7.35656 26.038L27.7664 18.4955C28.205 18.3334 28.4243 18.2523 28.549 18.0715C28.6736 17.8907 28.6736 17.6538 28.6736 17.1799V13.1731C28.6736 10.8036 28.6736 9.61881 29.297 8.71485C29.9204 7.81088 31.0169 7.40566 33.2098 6.59523L38.0897 4.79178C38.5106 4.63626 38.721 4.5585 38.868 4.663C39.015 4.76751 39.015 4.99486 39.015 5.44956V20.6094Z" fill="#05972E"/>
<path d="M39.015 47.7135C39.015 48.1682 39.015 48.3956 38.868 48.5001C38.721 48.6046 38.5106 48.5268 38.0898 48.3713L33.2099 46.568C31.0169 45.7576 29.9205 45.3524 29.2971 44.4484C28.6736 43.5444 28.6736 42.3596 28.6736 39.9901V36.5105C28.6736 34.141 28.6736 32.9562 29.2971 32.0522C29.9205 31.1483 31.0169 30.7431 33.2099 29.9326L38.0898 28.1293C38.5106 27.9738 38.721 27.896 38.868 28.0005C39.015 28.105 39.015 28.3324 39.015 28.7871V47.7135Z" fill="#05972E"/>
<path d="M2.82031 24.4385C2.82031 24.8932 2.82031 25.1206 2.9673 25.2251C3.1143 25.3296 3.32471 25.2518 3.74553 25.0963L8.62536 23.293C10.8183 22.4826 11.9148 22.0774 12.5382 21.1734C13.1616 20.2694 13.1616 19.0846 13.1616 16.7151V13.2355C13.1616 10.866 13.1616 9.68122 12.5382 8.77724C11.9148 7.87327 10.8183 7.46806 8.62536 6.65765L3.74553 4.85431C3.32471 4.6988 3.1143 4.62104 2.9673 4.72554C2.82031 4.83005 2.82031 5.0574 2.82031 5.5121V24.4385Z" fill="#05972E"/>
<path d="M52.125 10.8489H58.5681V23.2513H66.085V10.8489H72.528V43.2859H66.085V28.8846H58.5681V43.2859H52.125V10.8489Z" fill="#181818"/>
<path d="M88.9786 31.0653L85.8913 16.4822H85.8018L82.7145 31.0653H88.9786ZM89.8287 10.8489L98.2853 43.2859H91.5737L90.0972 36.426H81.5959L80.1194 43.2859H73.4079L81.8644 10.8489H89.8287Z" fill="#181818"/>
<path d="M104.355 33.155V34.1091C104.355 34.8662 104.415 35.5628 104.534 36.1989C104.654 36.8046 104.877 37.3195 105.205 37.7435C105.534 38.1675 105.966 38.5006 106.503 38.7429C107.07 38.9852 107.771 39.1064 108.606 39.1064C109.59 39.1064 110.47 38.7884 111.246 38.1523C112.051 37.486 112.454 36.4714 112.454 35.1085C112.454 34.3817 112.35 33.7608 112.141 33.2459C111.962 32.7007 111.649 32.2162 111.201 31.7921C110.754 31.3681 110.157 30.9895 109.411 30.6564C108.695 30.293 107.801 29.9295 106.727 29.5661C105.295 29.0815 104.057 28.5515 103.013 27.976C101.969 27.4006 101.089 26.7343 100.373 25.9771C99.6871 25.1896 99.18 24.2962 98.8519 23.2967C98.5238 22.267 98.3597 21.0858 98.3597 19.7532C98.3597 16.5428 99.2397 14.1502 101 12.5753C102.759 11.0003 105.176 10.2129 108.248 10.2129C109.68 10.2129 110.992 10.3795 112.185 10.7126C113.408 11.0155 114.452 11.5304 115.317 12.2572C116.212 12.9538 116.898 13.8624 117.376 14.983C117.883 16.0734 118.136 17.3908 118.136 18.9355V19.8441H111.962C111.962 18.2994 111.693 17.1183 111.156 16.3005C110.619 15.4525 109.725 15.0285 108.472 15.0285C107.756 15.0285 107.159 15.1345 106.682 15.3465C106.205 15.5585 105.817 15.8462 105.519 16.2097C105.25 16.5428 105.056 16.9365 104.937 17.3908C104.848 17.8451 104.803 18.3146 104.803 18.7992C104.803 19.7986 105.012 20.6466 105.429 21.3432C105.847 22.0095 106.742 22.6304 108.114 23.2059L113.08 25.3865C114.303 25.9317 115.303 26.5071 116.078 27.1129C116.854 27.6883 117.465 28.3243 117.913 29.0209C118.39 29.6872 118.718 30.4292 118.897 31.247C119.076 32.0647 119.165 32.9733 119.165 33.9728C119.165 37.3952 118.181 39.8938 116.212 41.4687C114.273 43.0134 111.559 43.7857 108.069 43.7857C104.43 43.7857 101.82 42.9831 100.239 41.3779C98.6878 39.7727 97.9123 37.4709 97.9123 34.4725V33.155H104.355Z" fill="#181818"/>
<path d="M127.468 38.4704H129.973C131.525 38.4704 132.777 38.1221 133.732 37.4255C134.686 36.7289 135.164 35.4417 135.164 33.5639C135.164 32.625 135.029 31.8527 134.761 31.247C134.522 30.611 134.179 30.1112 133.732 29.7478C133.314 29.3541 132.807 29.0815 132.211 28.9301C131.614 28.7786 130.958 28.7029 130.242 28.7029H127.468V38.4704ZM127.468 24.1599H129.302C131.092 24.1599 132.39 23.8419 133.195 23.2059C134.03 22.5396 134.448 21.4341 134.448 19.8895C134.448 18.3449 134.075 17.2545 133.329 16.6185C132.583 15.9825 131.405 15.6645 129.794 15.6645H127.468V24.1599ZM121.025 10.8489H131.808C133.12 10.8489 134.328 10.9852 135.432 11.2578C136.566 11.5304 137.535 11.9847 138.34 12.6207C139.146 13.2567 139.772 14.1047 140.22 15.1648C140.667 16.2248 140.891 17.5271 140.891 19.0717C140.891 20.8284 140.488 22.3427 139.683 23.6147C138.877 24.8565 137.669 25.7045 136.059 26.1588V26.2497C137.848 26.492 139.265 27.2643 140.309 28.5666C141.353 29.8689 141.875 31.6104 141.875 33.7911C141.875 35.0631 141.711 36.2746 141.383 37.4255C141.055 38.5764 140.488 39.591 139.683 40.4693C138.907 41.3173 137.878 41.9987 136.595 42.5136C135.343 43.0285 133.777 43.2859 131.897 43.2859H121.025V10.8489Z" fill="#181818"/>
<path d="M157.878 31.0653L154.791 16.4822H154.702L151.614 31.0653H157.878ZM158.728 10.8489L167.185 43.2859H160.473L158.997 36.426H150.496L149.019 43.2859H142.308L150.764 10.8489H158.728Z" fill="#181818"/>
</svg>
