<svg width="370" height="141" viewBox="0 0 370 141" fill="none" xmlns="http://www.w3.org/2000/svg">
<path d="M154 45C154 38.3726 159.373 33 166 33H358C364.627 33 370 38.3726 370 45V69H166C159.373 69 154 63.6274 154 57V45Z" fill="#05972E"/>
<path d="M168.354 57H166.876L171.149 45.3636H172.604L176.876 57H175.399L171.922 47.2045H171.831L168.354 57ZM168.899 52.4545H174.854V53.7045H168.899V52.4545ZM184.209 50.2273L183.004 50.5682C182.928 50.3674 182.817 50.1723 182.669 49.983C182.525 49.7898 182.328 49.6307 182.078 49.5057C181.828 49.3807 181.508 49.3182 181.118 49.3182C180.584 49.3182 180.139 49.4413 179.783 49.6875C179.43 49.9299 179.254 50.2386 179.254 50.6136C179.254 50.947 179.375 51.2102 179.618 51.4034C179.86 51.5966 180.239 51.7576 180.754 51.8864L182.05 52.2045C182.83 52.3939 183.411 52.6837 183.794 53.0739C184.177 53.4602 184.368 53.9583 184.368 54.5682C184.368 55.0682 184.224 55.5152 183.936 55.9091C183.652 56.303 183.254 56.6136 182.743 56.8409C182.232 57.0682 181.637 57.1818 180.959 57.1818C180.069 57.1818 179.332 56.9886 178.749 56.6023C178.165 56.2159 177.796 55.6515 177.641 54.9091L178.913 54.5909C179.035 55.0606 179.264 55.4129 179.601 55.6477C179.942 55.8826 180.387 56 180.936 56C181.561 56 182.057 55.8674 182.425 55.6023C182.796 55.3333 182.982 55.0114 182.982 54.6364C182.982 54.3333 182.875 54.0795 182.663 53.875C182.451 53.6667 182.125 53.5114 181.686 53.4091L180.232 53.0682C179.432 52.8788 178.845 52.5852 178.47 52.1875C178.099 51.786 177.913 51.2841 177.913 50.6818C177.913 50.1894 178.052 49.7538 178.328 49.375C178.608 48.9962 178.989 48.6989 179.47 48.483C179.955 48.267 180.504 48.1591 181.118 48.1591C181.982 48.1591 182.66 48.3485 183.152 48.7273C183.648 49.1061 184 49.6061 184.209 50.2273ZM192.088 50.2273L190.884 50.5682C190.808 50.3674 190.696 50.1723 190.548 49.983C190.404 49.7898 190.207 49.6307 189.957 49.5057C189.707 49.3807 189.387 49.3182 188.997 49.3182C188.463 49.3182 188.018 49.4413 187.662 49.6875C187.31 49.9299 187.134 50.2386 187.134 50.6136C187.134 50.947 187.255 51.2102 187.497 51.4034C187.74 51.5966 188.118 51.7576 188.634 51.8864L189.929 52.2045C190.709 52.3939 191.291 52.6837 191.673 53.0739C192.056 53.4602 192.247 53.9583 192.247 54.5682C192.247 55.0682 192.103 55.5152 191.815 55.9091C191.531 56.303 191.134 56.6136 190.622 56.8409C190.111 57.0682 189.516 57.1818 188.838 57.1818C187.948 57.1818 187.211 56.9886 186.628 56.6023C186.045 56.2159 185.675 55.6515 185.52 54.9091L186.793 54.5909C186.914 55.0606 187.143 55.4129 187.48 55.6477C187.821 55.8826 188.266 56 188.815 56C189.44 56 189.937 55.8674 190.304 55.6023C190.675 55.3333 190.861 55.0114 190.861 54.6364C190.861 54.3333 190.755 54.0795 190.543 53.875C190.331 53.6667 190.005 53.5114 189.565 53.4091L188.111 53.0682C187.312 52.8788 186.725 52.5852 186.35 52.1875C185.978 51.786 185.793 51.2841 185.793 50.6818C185.793 50.1894 185.931 49.7538 186.207 49.375C186.488 48.9962 186.868 48.6989 187.35 48.483C187.834 48.267 188.384 48.1591 188.997 48.1591C189.861 48.1591 190.539 48.3485 191.031 48.7273C191.528 49.1061 191.88 49.6061 192.088 50.2273ZM196.354 57.2045C195.801 57.2045 195.299 57.1004 194.848 56.892C194.397 56.6799 194.039 56.375 193.774 55.9773C193.509 55.5758 193.377 55.0909 193.377 54.5227C193.377 54.0227 193.475 53.6174 193.672 53.3068C193.869 52.9924 194.132 52.7462 194.462 52.5682C194.791 52.3902 195.155 52.2576 195.553 52.1705C195.954 52.0795 196.358 52.0076 196.763 51.9545C197.293 51.8864 197.723 51.8352 198.053 51.8011C198.386 51.7633 198.629 51.7008 198.78 51.6136C198.935 51.5265 199.013 51.375 199.013 51.1591V51.1136C199.013 50.553 198.86 50.1174 198.553 49.8068C198.25 49.4962 197.789 49.3409 197.172 49.3409C196.532 49.3409 196.03 49.4811 195.666 49.7614C195.303 50.0417 195.047 50.3409 194.899 50.6591L193.627 50.2045C193.854 49.6742 194.157 49.2614 194.536 48.9659C194.918 48.6667 195.335 48.4583 195.786 48.3409C196.24 48.2197 196.687 48.1591 197.127 48.1591C197.407 48.1591 197.729 48.1932 198.093 48.2614C198.46 48.3258 198.814 48.4602 199.155 48.6648C199.5 48.8693 199.786 49.178 200.013 49.5909C200.24 50.0038 200.354 50.5568 200.354 51.25V57H199.013V55.8182H198.945C198.854 56.0076 198.702 56.2102 198.49 56.4261C198.278 56.642 197.996 56.8258 197.644 56.9773C197.291 57.1288 196.861 57.2045 196.354 57.2045ZM196.558 56C197.089 56 197.536 55.8958 197.899 55.6875C198.267 55.4792 198.543 55.2102 198.729 54.8807C198.918 54.5511 199.013 54.2045 199.013 53.8409V52.6136C198.956 52.6818 198.831 52.7443 198.638 52.8011C198.449 52.8542 198.229 52.9015 197.979 52.9432C197.733 52.9811 197.492 53.0152 197.257 53.0455C197.026 53.072 196.839 53.0947 196.695 53.1136C196.346 53.1591 196.021 53.233 195.718 53.3352C195.418 53.4337 195.176 53.5833 194.99 53.7841C194.808 53.9811 194.718 54.25 194.718 54.5909C194.718 55.0568 194.89 55.4091 195.235 55.6477C195.583 55.8826 196.024 56 196.558 56ZM203.662 45.3636V57H202.321V45.3636H203.662ZM209.184 57.1818C208.396 57.1818 207.704 56.9943 207.11 56.6193C206.519 56.2443 206.057 55.7197 205.723 55.0455C205.394 54.3712 205.229 53.5833 205.229 52.6818C205.229 51.7727 205.394 50.9792 205.723 50.3011C206.057 49.6231 206.519 49.0966 207.11 48.7216C207.704 48.3466 208.396 48.1591 209.184 48.1591C209.972 48.1591 210.661 48.3466 211.252 48.7216C211.847 49.0966 212.309 49.6231 212.638 50.3011C212.972 50.9792 213.138 51.7727 213.138 52.6818C213.138 53.5833 212.972 54.3712 212.638 55.0455C212.309 55.7197 211.847 56.2443 211.252 56.6193C210.661 56.9943 209.972 57.1818 209.184 57.1818ZM209.184 55.9773C209.782 55.9773 210.275 55.8239 210.661 55.517C211.047 55.2102 211.333 54.8068 211.519 54.3068C211.704 53.8068 211.797 53.2652 211.797 52.6818C211.797 52.0985 211.704 51.5549 211.519 51.0511C211.333 50.5473 211.047 50.1402 210.661 49.8295C210.275 49.5189 209.782 49.3636 209.184 49.3636C208.585 49.3636 208.093 49.5189 207.706 49.8295C207.32 50.1402 207.034 50.5473 206.848 51.0511C206.663 51.5549 206.57 52.0985 206.57 52.6818C206.57 53.2652 206.663 53.8068 206.848 54.3068C207.034 54.8068 207.32 55.2102 207.706 55.517C208.093 55.8239 208.585 55.9773 209.184 55.9773ZM214.705 57V48.2727H216.001V49.6364H216.114C216.296 49.1705 216.59 48.8087 216.995 48.5511C217.4 48.2898 217.887 48.1591 218.455 48.1591C219.031 48.1591 219.51 48.2898 219.893 48.5511C220.279 48.8087 220.58 49.1705 220.796 49.6364H220.887C221.11 49.1856 221.446 48.8277 221.893 48.5625C222.34 48.2936 222.876 48.1591 223.501 48.1591C224.281 48.1591 224.919 48.4034 225.415 48.892C225.912 49.3769 226.16 50.1326 226.16 51.1591V57H224.819V51.1591C224.819 50.5152 224.643 50.0549 224.29 49.7784C223.938 49.5019 223.523 49.3636 223.046 49.3636C222.432 49.3636 221.957 49.5492 221.62 49.9205C221.283 50.2879 221.114 50.7538 221.114 51.3182V57H219.751V51.0227C219.751 50.5265 219.59 50.1269 219.268 49.8239C218.946 49.517 218.531 49.3636 218.023 49.3636C217.675 49.3636 217.349 49.4564 217.046 49.642C216.747 49.8277 216.504 50.0852 216.319 50.4148C216.137 50.7405 216.046 51.1174 216.046 51.5455V57H214.705ZM233.631 53.4318V48.2727H234.972V57H233.631V55.5227H233.54C233.336 55.9659 233.018 56.3428 232.586 56.6534C232.154 56.9602 231.609 57.1136 230.95 57.1136C230.404 57.1136 229.919 56.9943 229.495 56.7557C229.071 56.5133 228.737 56.1496 228.495 55.6648C228.253 55.1761 228.131 54.5606 228.131 53.8182V48.2727H229.472V53.7273C229.472 54.3636 229.65 54.8712 230.006 55.25C230.366 55.6288 230.825 55.8182 231.381 55.8182C231.715 55.8182 232.054 55.733 232.398 55.5625C232.747 55.392 233.039 55.1307 233.273 54.7784C233.512 54.4261 233.631 53.9773 233.631 53.4318ZM243.536 57.2045C242.983 57.2045 242.481 57.1004 242.031 56.892C241.58 56.6799 241.222 56.375 240.957 55.9773C240.692 55.5758 240.559 55.0909 240.559 54.5227C240.559 54.0227 240.658 53.6174 240.855 53.3068C241.052 52.9924 241.315 52.7462 241.644 52.5682C241.974 52.3902 242.338 52.2576 242.735 52.1705C243.137 52.0795 243.54 52.0076 243.945 51.9545C244.476 51.8864 244.906 51.8352 245.235 51.8011C245.569 51.7633 245.811 51.7008 245.963 51.6136C246.118 51.5265 246.195 51.375 246.195 51.1591V51.1136C246.195 50.553 246.042 50.1174 245.735 49.8068C245.432 49.4962 244.972 49.3409 244.355 49.3409C243.714 49.3409 243.213 49.4811 242.849 49.7614C242.485 50.0417 242.23 50.3409 242.082 50.6591L240.809 50.2045C241.036 49.6742 241.339 49.2614 241.718 48.9659C242.101 48.6667 242.517 48.4583 242.968 48.3409C243.423 48.2197 243.87 48.1591 244.309 48.1591C244.589 48.1591 244.911 48.1932 245.275 48.2614C245.642 48.3258 245.997 48.4602 246.338 48.6648C246.682 48.8693 246.968 49.178 247.195 49.5909C247.423 50.0038 247.536 50.5568 247.536 51.25V57H246.195V55.8182H246.127C246.036 56.0076 245.885 56.2102 245.673 56.4261C245.461 56.642 245.178 56.8258 244.826 56.9773C244.474 57.1288 244.044 57.2045 243.536 57.2045ZM243.741 56C244.271 56 244.718 55.8958 245.082 55.6875C245.449 55.4792 245.726 55.2102 245.911 54.8807C246.101 54.5511 246.195 54.2045 246.195 53.8409V52.6136C246.139 52.6818 246.014 52.7443 245.82 52.8011C245.631 52.8542 245.411 52.9015 245.161 52.9432C244.915 52.9811 244.675 53.0152 244.44 53.0455C244.209 53.072 244.021 53.0947 243.877 53.1136C243.529 53.1591 243.203 53.233 242.9 53.3352C242.601 53.4337 242.358 53.5833 242.173 53.7841C241.991 53.9811 241.9 54.25 241.9 54.5909C241.9 55.0568 242.072 55.4091 242.417 55.6477C242.766 55.8826 243.207 56 243.741 56ZM250.845 45.3636V57H249.504V45.3636H250.845ZM256.48 57.1818C255.639 57.1818 254.914 56.9962 254.304 56.625C253.698 56.25 253.23 55.7273 252.9 55.0568C252.574 54.3826 252.412 53.5985 252.412 52.7045C252.412 51.8106 252.574 51.0227 252.9 50.3409C253.23 49.6553 253.688 49.1212 254.275 48.7386C254.866 48.3523 255.556 48.1591 256.343 48.1591C256.798 48.1591 257.247 48.2348 257.69 48.3864C258.133 48.5379 258.537 48.7841 258.9 49.125C259.264 49.4621 259.554 49.9091 259.77 50.4659C259.985 51.0227 260.093 51.7083 260.093 52.5227V53.0909H253.366V51.9318H258.73C258.73 51.4394 258.631 51 258.434 50.6136C258.241 50.2273 257.965 49.9223 257.605 49.6989C257.249 49.4754 256.828 49.3636 256.343 49.3636C255.809 49.3636 255.347 49.4962 254.957 49.7614C254.571 50.0227 254.273 50.3636 254.065 50.7841C253.857 51.2045 253.753 51.6553 253.753 52.1364V52.9091C253.753 53.5682 253.866 54.1269 254.093 54.5852C254.324 55.0398 254.645 55.3864 255.054 55.625C255.463 55.8598 255.938 55.9773 256.48 55.9773C256.832 55.9773 257.15 55.928 257.434 55.8295C257.722 55.7273 257.97 55.5758 258.179 55.375C258.387 55.1705 258.548 54.9167 258.662 54.6136L259.957 54.9773C259.821 55.4167 259.592 55.803 259.27 56.1364C258.948 56.4659 258.55 56.7235 258.076 56.9091C257.603 57.0909 257.071 57.1818 256.48 57.1818ZM262.251 60.2727C262.024 60.2727 261.821 60.2538 261.643 60.2159C261.465 60.1818 261.342 60.1477 261.274 60.1136L261.615 58.9318C261.941 59.0152 262.228 59.0455 262.478 59.0227C262.728 59 262.95 58.8883 263.143 58.6875C263.34 58.4905 263.52 58.1705 263.683 57.7273L263.933 57.0455L260.706 48.2727H262.16L264.569 55.2273H264.66L267.069 48.2727H268.524L264.819 58.2727C264.653 58.7235 264.446 59.0966 264.2 59.392C263.954 59.6913 263.668 59.9129 263.342 60.0568C263.02 60.2008 262.657 60.2727 262.251 60.2727ZM271.064 53.8182L271.041 52.1591H271.314L275.132 48.2727H276.791L272.723 52.3864H272.609L271.064 53.8182ZM269.814 57V45.3636H271.155V57H269.814ZM275.359 57L271.95 52.6818L272.905 51.75L277.064 57H275.359ZM283.537 53.4318V48.2727H284.878V57H283.537V55.5227H283.446C283.242 55.9659 282.923 56.3428 282.492 56.6534C282.06 56.9602 281.514 57.1136 280.855 57.1136C280.31 57.1136 279.825 56.9943 279.401 56.7557C278.976 56.5133 278.643 56.1496 278.401 55.6648C278.158 55.1761 278.037 54.5606 278.037 53.8182V48.2727H279.378V53.7273C279.378 54.3636 279.556 54.8712 279.912 55.25C280.272 55.6288 280.73 55.8182 281.287 55.8182C281.62 55.8182 281.959 55.733 282.304 55.5625C282.652 55.392 282.944 55.1307 283.179 54.7784C283.418 54.4261 283.537 53.9773 283.537 53.4318ZM286.854 57V48.2727H288.149V49.6364H288.263C288.445 49.1705 288.738 48.8087 289.144 48.5511C289.549 48.2898 290.036 48.1591 290.604 48.1591C291.18 48.1591 291.659 48.2898 292.041 48.5511C292.428 48.8087 292.729 49.1705 292.945 49.6364H293.036C293.259 49.1856 293.594 48.8277 294.041 48.5625C294.488 48.2936 295.024 48.1591 295.649 48.1591C296.43 48.1591 297.068 48.4034 297.564 48.892C298.06 49.3769 298.308 50.1326 298.308 51.1591V57H296.967V51.1591C296.967 50.5152 296.791 50.0549 296.439 49.7784C296.087 49.5019 295.672 49.3636 295.195 49.3636C294.581 49.3636 294.106 49.5492 293.769 49.9205C293.431 50.2879 293.263 50.7538 293.263 51.3182V57H291.899V51.0227C291.899 50.5265 291.738 50.1269 291.416 49.8239C291.094 49.517 290.68 49.3636 290.172 49.3636C289.824 49.3636 289.498 49.4564 289.195 49.642C288.896 49.8277 288.653 50.0852 288.467 50.4148C288.286 50.7405 288.195 51.1174 288.195 51.5455V57H286.854Z" fill="white"/>
<path d="M314.513 48.7727V57.5H313.192V50.0938H313.141L311.053 51.4574V50.196L313.23 48.7727H314.513ZM316.808 57.5L320.618 49.9659V49.902H316.211V48.7727H321.981V49.9403L318.184 57.5H316.808ZM323.55 56.4176C323.317 56.4176 323.116 56.3352 322.949 56.1705C322.781 56.0028 322.697 55.8011 322.697 55.5653C322.697 55.3324 322.781 55.1335 322.949 54.9688C323.116 54.8011 323.317 54.7173 323.55 54.7173C323.782 54.7173 323.983 54.8011 324.15 54.9688C324.318 55.1335 324.402 55.3324 324.402 55.5653C324.402 55.7216 324.362 55.8651 324.282 55.9957C324.206 56.1236 324.104 56.2259 323.976 56.3026C323.848 56.3793 323.706 56.4176 323.55 56.4176ZM323.55 52.0455C323.317 52.0455 323.116 51.9631 322.949 51.7983C322.781 51.6307 322.697 51.429 322.697 51.1932C322.697 50.9602 322.781 50.7614 322.949 50.5966C323.116 50.429 323.317 50.3452 323.55 50.3452C323.782 50.3452 323.983 50.429 324.15 50.5966C324.318 50.7614 324.402 50.9602 324.402 51.1932C324.402 51.3494 324.362 51.4929 324.282 51.6236C324.206 51.7514 324.104 51.8537 323.976 51.9304C323.848 52.0071 323.706 52.0455 323.55 52.0455ZM325.731 57.5V56.5455L328.685 53.4858C329 53.1534 329.26 52.8622 329.464 52.6122C329.672 52.3594 329.827 52.1193 329.929 51.892C330.031 51.6648 330.082 51.4233 330.082 51.1676C330.082 50.8778 330.014 50.6278 329.878 50.4176C329.741 50.2045 329.555 50.0412 329.32 49.9276C329.084 49.8111 328.818 49.7528 328.523 49.7528C328.21 49.7528 327.937 49.8168 327.704 49.9446C327.471 50.0724 327.293 50.2528 327.168 50.4858C327.043 50.7187 326.98 50.9915 326.98 51.304H325.723C325.723 50.7727 325.845 50.3082 326.089 49.9105C326.334 49.5128 326.669 49.2045 327.095 48.9858C327.521 48.7642 328.006 48.6534 328.548 48.6534C329.096 48.6534 329.579 48.7628 329.997 48.9815C330.418 49.1974 330.746 49.4929 330.981 49.8679C331.217 50.2401 331.335 50.6605 331.335 51.1293C331.335 51.4531 331.274 51.7699 331.152 52.0795C331.033 52.3892 330.824 52.7344 330.525 53.1151C330.227 53.4929 329.812 53.9517 329.281 54.4915L327.547 56.3068V56.3707H331.476V57.5H325.731ZM335.769 57.6449C335.096 57.642 334.521 57.4645 334.043 57.1122C333.566 56.7599 333.201 56.2472 332.948 55.5739C332.695 54.9006 332.569 54.0895 332.569 53.1406C332.569 52.1946 332.695 51.3864 332.948 50.7159C333.204 50.0455 333.57 49.5341 334.048 49.1818C334.528 48.8295 335.102 48.6534 335.769 48.6534C336.437 48.6534 337.009 48.831 337.486 49.1861C337.964 49.5384 338.329 50.0497 338.582 50.7202C338.837 51.3878 338.965 52.1946 338.965 53.1406C338.965 54.0923 338.839 54.9048 338.586 55.5781C338.333 56.2486 337.968 56.7614 337.491 57.1165C337.013 57.4688 336.44 57.6449 335.769 57.6449ZM335.769 56.5071C336.36 56.5071 336.822 56.2188 337.154 55.642C337.489 55.0653 337.657 54.2315 337.657 53.1406C337.657 52.4162 337.58 51.804 337.427 51.304C337.276 50.8011 337.059 50.4205 336.775 50.1619C336.494 49.9006 336.158 49.7699 335.769 49.7699C335.181 49.7699 334.719 50.0597 334.384 50.6392C334.049 51.2187 333.88 52.0526 333.877 53.1406C333.877 53.8679 333.952 54.483 334.103 54.9858C334.256 55.4858 334.474 55.8651 334.755 56.1236C335.036 56.3793 335.374 56.5071 335.769 56.5071Z" fill="#D0D0D0"/>
<path d="M349.735 54.1733L350.676 55.1146L356.32 49.4709L357.263 50.4137L350.676 57.0002L346.434 52.7575L347.376 51.8147L348.793 53.2313L349.735 54.1733ZM349.736 52.2881L353.038 48.9863L353.978 49.9265L350.676 53.2283L349.736 52.2881ZM347.852 56.0582L346.91 57.0002L342.667 52.7575L343.61 51.8147L344.552 52.7568L344.551 52.7575L347.852 56.0582Z" fill="#D0D0D0"/>
<path d="M34 97C34 90.3726 39.3726 85 46 85H358C364.627 85 370 90.3726 370 97V129C370 135.627 364.627 141 358 141H34V97Z" fill="white"/>
<path d="M57.7727 100.273C57.7045 99.697 57.428 99.25 56.9432 98.9318C56.4583 98.6136 55.8636 98.4545 55.1591 98.4545C54.6439 98.4545 54.1932 98.5379 53.8068 98.7045C53.4242 98.8712 53.125 99.1004 52.9091 99.392C52.697 99.6837 52.5909 100.015 52.5909 100.386C52.5909 100.697 52.6648 100.964 52.8125 101.188C52.964 101.407 53.1572 101.591 53.392 101.739C53.6269 101.883 53.8731 102.002 54.1307 102.097C54.3883 102.187 54.625 102.261 54.8409 102.318L56.0227 102.636C56.3258 102.716 56.6629 102.826 57.0341 102.966C57.4091 103.106 57.767 103.297 58.108 103.54C58.4527 103.778 58.7367 104.085 58.9602 104.46C59.1837 104.835 59.2955 105.295 59.2955 105.841C59.2955 106.47 59.1307 107.038 58.8011 107.545C58.4754 108.053 57.9981 108.456 57.3693 108.756C56.7443 109.055 55.9848 109.205 55.0909 109.205C54.2576 109.205 53.536 109.07 52.9261 108.801C52.3201 108.532 51.8428 108.157 51.4943 107.676C51.1496 107.195 50.9545 106.636 50.9091 106H52.3636C52.4015 106.439 52.5492 106.803 52.8068 107.091C53.0682 107.375 53.3977 107.587 53.7955 107.727C54.197 107.864 54.6288 107.932 55.0909 107.932C55.6288 107.932 56.1117 107.845 56.5398 107.67C56.9678 107.492 57.3068 107.246 57.5568 106.932C57.8068 106.614 57.9318 106.242 57.9318 105.818C57.9318 105.432 57.8239 105.117 57.608 104.875C57.392 104.633 57.108 104.436 56.7557 104.284C56.4034 104.133 56.0227 104 55.6136 103.886L54.1818 103.477C53.2727 103.216 52.553 102.843 52.0227 102.358C51.4924 101.873 51.2273 101.239 51.2273 100.455C51.2273 99.803 51.4034 99.2348 51.7557 98.75C52.1117 98.2614 52.589 97.8826 53.1875 97.6136C53.7898 97.3409 54.4621 97.2045 55.2045 97.2045C55.9545 97.2045 56.6212 97.339 57.2045 97.608C57.7879 97.8731 58.25 98.2367 58.5909 98.6989C58.9356 99.161 59.1174 99.6856 59.1364 100.273H57.7727ZM63.5186 109.205C62.9655 109.205 62.4637 109.1 62.0129 108.892C61.5621 108.68 61.2042 108.375 60.939 107.977C60.6739 107.576 60.5413 107.091 60.5413 106.523C60.5413 106.023 60.6398 105.617 60.8368 105.307C61.0337 104.992 61.297 104.746 61.6265 104.568C61.9561 104.39 62.3197 104.258 62.7174 104.17C63.119 104.08 63.5224 104.008 63.9277 103.955C64.458 103.886 64.8879 103.835 65.2174 103.801C65.5508 103.763 65.7932 103.701 65.9447 103.614C66.1 103.527 66.1777 103.375 66.1777 103.159V103.114C66.1777 102.553 66.0243 102.117 65.7174 101.807C65.4144 101.496 64.9542 101.341 64.3368 101.341C63.6966 101.341 63.1947 101.481 62.8311 101.761C62.4674 102.042 62.2118 102.341 62.064 102.659L60.7913 102.205C61.0186 101.674 61.3216 101.261 61.7004 100.966C62.083 100.667 62.4996 100.458 62.9504 100.341C63.4049 100.22 63.8519 100.159 64.2913 100.159C64.5716 100.159 64.8936 100.193 65.2572 100.261C65.6246 100.326 65.9788 100.46 66.3197 100.665C66.6644 100.869 66.9504 101.178 67.1777 101.591C67.4049 102.004 67.5186 102.557 67.5186 103.25V109H66.1777V107.818H66.1095C66.0186 108.008 65.8671 108.21 65.6549 108.426C65.4428 108.642 65.1606 108.826 64.8084 108.977C64.4561 109.129 64.0262 109.205 63.5186 109.205ZM63.7231 108C64.2534 108 64.7004 107.896 65.064 107.688C65.4315 107.479 65.708 107.21 65.8936 106.881C66.083 106.551 66.1777 106.205 66.1777 105.841V104.614C66.1209 104.682 65.9959 104.744 65.8027 104.801C65.6133 104.854 65.3936 104.902 65.1436 104.943C64.8974 104.981 64.6568 105.015 64.422 105.045C64.1909 105.072 64.0034 105.095 63.8595 105.114C63.511 105.159 63.1852 105.233 62.8822 105.335C62.583 105.434 62.3405 105.583 62.1549 105.784C61.9731 105.981 61.8822 106.25 61.8822 106.591C61.8822 107.057 62.0546 107.409 62.3993 107.648C62.7477 107.883 63.189 108 63.7231 108ZM70.8269 97.3636V109H69.486V97.3636H70.8269ZM76.3484 109.182C75.5605 109.182 74.8692 108.994 74.2745 108.619C73.6836 108.244 73.2215 107.72 72.8881 107.045C72.5586 106.371 72.3938 105.583 72.3938 104.682C72.3938 103.773 72.5586 102.979 72.8881 102.301C73.2215 101.623 73.6836 101.097 74.2745 100.722C74.8692 100.347 75.5605 100.159 76.3484 100.159C77.1362 100.159 77.8256 100.347 78.4165 100.722C79.0112 101.097 79.4734 101.623 79.8029 102.301C80.1362 102.979 80.3029 103.773 80.3029 104.682C80.3029 105.583 80.1362 106.371 79.8029 107.045C79.4734 107.72 79.0112 108.244 78.4165 108.619C77.8256 108.994 77.1362 109.182 76.3484 109.182ZM76.3484 107.977C76.9468 107.977 77.4393 107.824 77.8256 107.517C78.212 107.21 78.498 106.807 78.6836 106.307C78.8692 105.807 78.962 105.265 78.962 104.682C78.962 104.098 78.8692 103.555 78.6836 103.051C78.498 102.547 78.212 102.14 77.8256 101.83C77.4393 101.519 76.9468 101.364 76.3484 101.364C75.7499 101.364 75.2574 101.519 74.8711 101.83C74.4847 102.14 74.1987 102.547 74.0131 103.051C73.8275 103.555 73.7347 104.098 73.7347 104.682C73.7347 105.265 73.8275 105.807 74.0131 106.307C74.1987 106.807 74.4847 107.21 74.8711 107.517C75.2574 107.824 75.7499 107.977 76.3484 107.977ZM81.8698 109V100.273H83.1652V101.636H83.2789C83.4607 101.17 83.7542 100.809 84.1595 100.551C84.5648 100.29 85.0516 100.159 85.6198 100.159C86.1955 100.159 86.6747 100.29 87.0573 100.551C87.4436 100.809 87.7448 101.17 87.9607 101.636H88.0516C88.2751 101.186 88.6103 100.828 89.0573 100.562C89.5042 100.294 90.0402 100.159 90.6652 100.159C91.4455 100.159 92.0838 100.403 92.58 100.892C93.0762 101.377 93.3243 102.133 93.3243 103.159V109H91.9834V103.159C91.9834 102.515 91.8073 102.055 91.455 101.778C91.1027 101.502 90.688 101.364 90.2107 101.364C89.597 101.364 89.1217 101.549 88.7845 101.92C88.4474 102.288 88.2789 102.754 88.2789 103.318V109H86.9152V103.023C86.9152 102.527 86.7542 102.127 86.4323 101.824C86.1103 101.517 85.6955 101.364 85.188 101.364C84.8395 101.364 84.5137 101.456 84.2107 101.642C83.9114 101.828 83.669 102.085 83.4834 102.415C83.3016 102.741 83.2107 103.117 83.2107 103.545V109H81.8698ZM97.0687 97.3636L96.9551 105.727H95.6369L95.5233 97.3636H97.0687ZM96.296 109.091C96.0157 109.091 95.7752 108.991 95.5744 108.79C95.3737 108.589 95.2733 108.348 95.2733 108.068C95.2733 107.788 95.3737 107.547 95.5744 107.347C95.7752 107.146 96.0157 107.045 96.296 107.045C96.5763 107.045 96.8169 107.146 97.0176 107.347C97.2184 107.547 97.3187 107.788 97.3187 108.068C97.3187 108.254 97.2714 108.424 97.1767 108.58C97.0858 108.735 96.9627 108.86 96.8074 108.955C96.6559 109.045 96.4854 109.091 96.296 109.091ZM107.698 105.364H109.244L110.539 107.068L110.88 107.523L112.812 110.091H111.266L109.994 108.386L109.676 107.955L107.698 105.364ZM113.289 103.182C113.289 104.409 113.068 105.47 112.624 106.364C112.181 107.258 111.573 107.947 110.801 108.432C110.028 108.917 109.145 109.159 108.153 109.159C107.16 109.159 106.278 108.917 105.505 108.432C104.732 107.947 104.124 107.258 103.681 106.364C103.238 105.47 103.016 104.409 103.016 103.182C103.016 101.955 103.238 100.894 103.681 100C104.124 99.1061 104.732 98.4167 105.505 97.9318C106.278 97.447 107.16 97.2045 108.153 97.2045C109.145 97.2045 110.028 97.447 110.801 97.9318C111.573 98.4167 112.181 99.1061 112.624 100C113.068 100.894 113.289 101.955 113.289 103.182ZM111.926 103.182C111.926 102.174 111.757 101.324 111.42 100.631C111.086 99.9375 110.634 99.4129 110.062 99.0568C109.494 98.7008 108.857 98.5227 108.153 98.5227C107.448 98.5227 106.81 98.7008 106.238 99.0568C105.67 99.4129 105.217 99.9375 104.88 100.631C104.547 101.324 104.38 102.174 104.38 103.182C104.38 104.189 104.547 105.04 104.88 105.733C105.217 106.426 105.67 106.951 106.238 107.307C106.81 107.663 107.448 107.841 108.153 107.841C108.857 107.841 109.494 107.663 110.062 107.307C110.634 106.951 111.086 106.426 111.42 105.733C111.757 105.04 111.926 104.189 111.926 103.182ZM117.565 109.205C117.012 109.205 116.51 109.1 116.059 108.892C115.608 108.68 115.25 108.375 114.985 107.977C114.72 107.576 114.588 107.091 114.588 106.523C114.588 106.023 114.686 105.617 114.883 105.307C115.08 104.992 115.343 104.746 115.673 104.568C116.002 104.39 116.366 104.258 116.764 104.17C117.165 104.08 117.569 104.008 117.974 103.955C118.504 103.886 118.934 103.835 119.264 103.801C119.597 103.763 119.839 103.701 119.991 103.614C120.146 103.527 120.224 103.375 120.224 103.159V103.114C120.224 102.553 120.071 102.117 119.764 101.807C119.461 101.496 119 101.341 118.383 101.341C117.743 101.341 117.241 101.481 116.877 101.761C116.514 102.042 116.258 102.341 116.11 102.659L114.838 102.205C115.065 101.674 115.368 101.261 115.747 100.966C116.129 100.667 116.546 100.458 116.997 100.341C117.451 100.22 117.898 100.159 118.338 100.159C118.618 100.159 118.94 100.193 119.303 100.261C119.671 100.326 120.025 100.46 120.366 100.665C120.711 100.869 120.997 101.178 121.224 101.591C121.451 102.004 121.565 102.557 121.565 103.25V109H120.224V107.818H120.156C120.065 108.008 119.913 108.21 119.701 108.426C119.489 108.642 119.207 108.826 118.855 108.977C118.502 109.129 118.072 109.205 117.565 109.205ZM117.769 108C118.3 108 118.747 107.896 119.11 107.688C119.478 107.479 119.754 107.21 119.94 106.881C120.129 106.551 120.224 106.205 120.224 105.841V104.614C120.167 104.682 120.042 104.744 119.849 104.801C119.66 104.854 119.44 104.902 119.19 104.943C118.944 104.981 118.703 105.015 118.468 105.045C118.237 105.072 118.05 105.095 117.906 105.114C117.557 105.159 117.231 105.233 116.928 105.335C116.629 105.434 116.387 105.583 116.201 105.784C116.019 105.981 115.928 106.25 115.928 106.591C115.928 107.057 116.101 107.409 116.446 107.648C116.794 107.883 117.235 108 117.769 108ZM124.873 103.75V109H123.532V100.273H124.828V101.636H124.941C125.146 101.193 125.457 100.837 125.873 100.568C126.29 100.295 126.828 100.159 127.487 100.159C128.078 100.159 128.595 100.28 129.038 100.523C129.481 100.761 129.826 101.125 130.072 101.614C130.318 102.098 130.441 102.712 130.441 103.455V109H129.1V103.545C129.1 102.86 128.922 102.326 128.566 101.943C128.21 101.557 127.722 101.364 127.1 101.364C126.672 101.364 126.29 101.456 125.953 101.642C125.619 101.828 125.356 102.098 125.163 102.455C124.97 102.811 124.873 103.242 124.873 103.75ZM135.707 109.182C134.98 109.182 134.338 108.998 133.781 108.631C133.224 108.259 132.789 107.737 132.474 107.062C132.16 106.384 132.003 105.583 132.003 104.659C132.003 103.742 132.16 102.947 132.474 102.273C132.789 101.598 133.226 101.078 133.787 100.71C134.347 100.343 134.995 100.159 135.73 100.159C136.298 100.159 136.747 100.254 137.076 100.443C137.41 100.629 137.664 100.841 137.838 101.08C138.016 101.314 138.154 101.508 138.253 101.659H138.366V97.3636H139.707V109H138.412V107.659H138.253C138.154 107.818 138.014 108.019 137.832 108.261C137.65 108.5 137.391 108.714 137.054 108.903C136.717 109.089 136.268 109.182 135.707 109.182ZM135.889 107.977C136.427 107.977 136.881 107.837 137.253 107.557C137.624 107.273 137.906 106.881 138.099 106.381C138.292 105.877 138.389 105.295 138.389 104.636C138.389 103.985 138.294 103.415 138.105 102.926C137.915 102.434 137.635 102.051 137.264 101.778C136.893 101.502 136.434 101.364 135.889 101.364C135.321 101.364 134.847 101.509 134.468 101.801C134.093 102.089 133.811 102.481 133.622 102.977C133.436 103.47 133.343 104.023 133.343 104.636C133.343 105.258 133.438 105.822 133.628 106.33C133.821 106.833 134.105 107.235 134.48 107.534C134.859 107.83 135.328 107.977 135.889 107.977ZM144.437 109.205C143.884 109.205 143.382 109.1 142.932 108.892C142.481 108.68 142.123 108.375 141.858 107.977C141.593 107.576 141.46 107.091 141.46 106.523C141.46 106.023 141.559 105.617 141.756 105.307C141.952 104.992 142.216 104.746 142.545 104.568C142.875 104.39 143.238 104.258 143.636 104.17C144.038 104.08 144.441 104.008 144.846 103.955C145.377 103.886 145.807 103.835 146.136 103.801C146.47 103.763 146.712 103.701 146.863 103.614C147.019 103.527 147.096 103.375 147.096 103.159V103.114C147.096 102.553 146.943 102.117 146.636 101.807C146.333 101.496 145.873 101.341 145.256 101.341C144.615 101.341 144.113 101.481 143.75 101.761C143.386 102.042 143.131 102.341 142.983 102.659L141.71 102.205C141.937 101.674 142.24 101.261 142.619 100.966C143.002 100.667 143.418 100.458 143.869 100.341C144.324 100.22 144.771 100.159 145.21 100.159C145.49 100.159 145.812 100.193 146.176 100.261C146.543 100.326 146.898 100.46 147.238 100.665C147.583 100.869 147.869 101.178 148.096 101.591C148.324 102.004 148.437 102.557 148.437 103.25V109H147.096V107.818H147.028C146.937 108.008 146.786 108.21 146.574 108.426C146.362 108.642 146.079 108.826 145.727 108.977C145.375 109.129 144.945 109.205 144.437 109.205ZM144.642 108C145.172 108 145.619 107.896 145.983 107.688C146.35 107.479 146.627 107.21 146.812 106.881C147.002 106.551 147.096 106.205 147.096 105.841V104.614C147.04 104.682 146.915 104.744 146.721 104.801C146.532 104.854 146.312 104.902 146.062 104.943C145.816 104.981 145.576 105.015 145.341 105.045C145.11 105.072 144.922 105.095 144.778 105.114C144.43 105.159 144.104 105.233 143.801 105.335C143.502 105.434 143.259 105.583 143.074 105.784C142.892 105.981 142.801 106.25 142.801 106.591C142.801 107.057 142.973 107.409 143.318 107.648C143.666 107.883 144.108 108 144.642 108ZM150.956 112.273C150.729 112.273 150.526 112.254 150.348 112.216C150.17 112.182 150.047 112.148 149.979 112.114L150.32 110.932C150.645 111.015 150.933 111.045 151.183 111.023C151.433 111 151.655 110.888 151.848 110.688C152.045 110.491 152.225 110.17 152.388 109.727L152.638 109.045L149.41 100.273H150.865L153.274 107.227H153.365L155.774 100.273H157.229L153.524 110.273C153.357 110.723 153.151 111.097 152.905 111.392C152.659 111.691 152.373 111.913 152.047 112.057C151.725 112.201 151.361 112.273 150.956 112.273ZM164.7 102.227L163.496 102.568C163.42 102.367 163.308 102.172 163.161 101.983C163.017 101.79 162.82 101.631 162.57 101.506C162.32 101.381 162 101.318 161.609 101.318C161.075 101.318 160.63 101.441 160.274 101.688C159.922 101.93 159.746 102.239 159.746 102.614C159.746 102.947 159.867 103.21 160.109 103.403C160.352 103.597 160.731 103.758 161.246 103.886L162.541 104.205C163.322 104.394 163.903 104.684 164.286 105.074C164.668 105.46 164.859 105.958 164.859 106.568C164.859 107.068 164.715 107.515 164.428 107.909C164.144 108.303 163.746 108.614 163.234 108.841C162.723 109.068 162.128 109.182 161.45 109.182C160.56 109.182 159.823 108.989 159.24 108.602C158.657 108.216 158.287 107.652 158.132 106.909L159.405 106.591C159.526 107.061 159.755 107.413 160.092 107.648C160.433 107.883 160.878 108 161.428 108C162.053 108 162.549 107.867 162.916 107.602C163.287 107.333 163.473 107.011 163.473 106.636C163.473 106.333 163.367 106.08 163.155 105.875C162.943 105.667 162.617 105.511 162.178 105.409L160.723 105.068C159.924 104.879 159.337 104.585 158.962 104.188C158.59 103.786 158.405 103.284 158.405 102.682C158.405 102.189 158.543 101.754 158.82 101.375C159.1 100.996 159.481 100.699 159.962 100.483C160.447 100.267 160.996 100.159 161.609 100.159C162.473 100.159 163.151 100.348 163.644 100.727C164.14 101.106 164.492 101.606 164.7 102.227ZM166.398 109V100.273H167.739V109H166.398ZM167.08 98.8182C166.818 98.8182 166.593 98.7292 166.404 98.5511C166.218 98.3731 166.125 98.1591 166.125 97.9091C166.125 97.6591 166.218 97.4451 166.404 97.267C166.593 97.089 166.818 97 167.08 97C167.341 97 167.565 97.089 167.75 97.267C167.94 97.4451 168.034 97.6591 168.034 97.9091C168.034 98.1591 167.94 98.3731 167.75 98.5511C167.565 98.7292 167.341 98.8182 167.08 98.8182ZM169.465 109V107.977L174.419 101.614V101.523H169.624V100.273H176.147V101.341L171.328 107.659V107.75H176.306V109H169.465ZM179.641 105.727V105.659C179.649 104.936 179.724 104.36 179.868 103.932C180.012 103.504 180.217 103.157 180.482 102.892C180.747 102.627 181.065 102.383 181.436 102.159C181.66 102.023 181.861 101.862 182.039 101.676C182.217 101.487 182.357 101.269 182.459 101.023C182.565 100.777 182.618 100.504 182.618 100.205C182.618 99.8333 182.531 99.5114 182.357 99.2386C182.183 98.9659 181.95 98.7557 181.658 98.608C181.366 98.4602 181.043 98.3864 180.686 98.3864C180.376 98.3864 180.077 98.4508 179.789 98.5795C179.501 98.7083 179.26 98.911 179.067 99.1875C178.874 99.464 178.762 99.8258 178.732 100.273H177.3C177.33 99.6288 177.497 99.0777 177.8 98.6193C178.107 98.161 178.51 97.8106 179.01 97.5682C179.514 97.3258 180.073 97.2045 180.686 97.2045C181.353 97.2045 181.933 97.3371 182.425 97.6023C182.921 97.8674 183.304 98.2311 183.573 98.6932C183.846 99.1553 183.982 99.6818 183.982 100.273C183.982 100.689 183.918 101.066 183.789 101.403C183.664 101.741 183.482 102.042 183.243 102.307C183.008 102.572 182.724 102.807 182.391 103.011C182.058 103.22 181.791 103.439 181.59 103.67C181.389 103.898 181.243 104.169 181.152 104.483C181.061 104.797 181.012 105.189 181.005 105.659V105.727H179.641ZM180.368 109.091C180.088 109.091 179.847 108.991 179.647 108.79C179.446 108.589 179.346 108.348 179.346 108.068C179.346 107.788 179.446 107.547 179.647 107.347C179.847 107.146 180.088 107.045 180.368 107.045C180.649 107.045 180.889 107.146 181.09 107.347C181.291 107.547 181.391 107.788 181.391 108.068C181.391 108.254 181.344 108.424 181.249 108.58C181.158 108.735 181.035 108.86 180.88 108.955C180.728 109.045 180.558 109.091 180.368 109.091ZM188.722 97.3636H190.336L193.563 102.795H193.699L196.927 97.3636H198.54L194.336 104.205V109H192.927V104.205L188.722 97.3636ZM202.012 109.182C201.224 109.182 200.533 108.994 199.938 108.619C199.347 108.244 198.885 107.72 198.552 107.045C198.222 106.371 198.058 105.583 198.058 104.682C198.058 103.773 198.222 102.979 198.552 102.301C198.885 101.623 199.347 101.097 199.938 100.722C200.533 100.347 201.224 100.159 202.012 100.159C202.8 100.159 203.489 100.347 204.08 100.722C204.675 101.097 205.137 101.623 205.467 102.301C205.8 102.979 205.967 103.773 205.967 104.682C205.967 105.583 205.8 106.371 205.467 107.045C205.137 107.72 204.675 108.244 204.08 108.619C203.489 108.994 202.8 109.182 202.012 109.182ZM202.012 107.977C202.611 107.977 203.103 107.824 203.489 107.517C203.876 107.21 204.162 106.807 204.347 106.307C204.533 105.807 204.626 105.265 204.626 104.682C204.626 104.098 204.533 103.555 204.347 103.051C204.162 102.547 203.876 102.14 203.489 101.83C203.103 101.519 202.611 101.364 202.012 101.364C201.414 101.364 200.921 101.519 200.535 101.83C200.148 102.14 199.862 102.547 199.677 103.051C199.491 103.555 199.398 104.098 199.398 104.682C199.398 105.265 199.491 105.807 199.677 106.307C199.862 106.807 200.148 107.21 200.535 107.517C200.921 107.824 201.414 107.977 202.012 107.977ZM207.534 109V100.273H208.829V101.591H208.92C209.079 101.159 209.367 100.809 209.784 100.54C210.2 100.271 210.67 100.136 211.193 100.136C211.291 100.136 211.414 100.138 211.562 100.142C211.71 100.146 211.821 100.152 211.897 100.159V101.523C211.852 101.511 211.748 101.494 211.585 101.472C211.426 101.445 211.257 101.432 211.079 101.432C210.655 101.432 210.276 101.521 209.943 101.699C209.613 101.873 209.352 102.116 209.159 102.426C208.969 102.733 208.874 103.083 208.874 103.477V109H207.534ZM216.036 109.182C215.309 109.182 214.667 108.998 214.11 108.631C213.554 108.259 213.118 107.737 212.804 107.062C212.489 106.384 212.332 105.583 212.332 104.659C212.332 103.742 212.489 102.947 212.804 102.273C213.118 101.598 213.555 101.078 214.116 100.71C214.677 100.343 215.324 100.159 216.059 100.159C216.627 100.159 217.076 100.254 217.406 100.443C217.739 100.629 217.993 100.841 218.167 101.08C218.345 101.314 218.483 101.508 218.582 101.659H218.696V97.3636H220.036V109H218.741V107.659H218.582C218.483 107.818 218.343 108.019 218.161 108.261C217.98 108.5 217.72 108.714 217.383 108.903C217.046 109.089 216.597 109.182 216.036 109.182ZM216.218 107.977C216.756 107.977 217.211 107.837 217.582 107.557C217.953 107.273 218.235 106.881 218.429 106.381C218.622 105.877 218.718 105.295 218.718 104.636C218.718 103.985 218.624 103.415 218.434 102.926C218.245 102.434 217.965 102.051 217.593 101.778C217.222 101.502 216.764 101.364 216.218 101.364C215.65 101.364 215.177 101.509 214.798 101.801C214.423 102.089 214.141 102.481 213.951 102.977C213.766 103.47 213.673 104.023 213.673 104.636C213.673 105.258 213.768 105.822 213.957 106.33C214.15 106.833 214.434 107.235 214.809 107.534C215.188 107.83 215.658 107.977 216.218 107.977ZM224.767 109.205C224.214 109.205 223.712 109.1 223.261 108.892C222.81 108.68 222.452 108.375 222.187 107.977C221.922 107.576 221.789 107.091 221.789 106.523C221.789 106.023 221.888 105.617 222.085 105.307C222.282 104.992 222.545 104.746 222.875 104.568C223.204 104.39 223.568 104.258 223.966 104.17C224.367 104.08 224.77 104.008 225.176 103.955C225.706 103.886 226.136 103.835 226.466 103.801C226.799 103.763 227.041 103.701 227.193 103.614C227.348 103.527 227.426 103.375 227.426 103.159V103.114C227.426 102.553 227.272 102.117 226.966 101.807C226.663 101.496 226.202 101.341 225.585 101.341C224.945 101.341 224.443 101.481 224.079 101.761C223.716 102.042 223.46 102.341 223.312 102.659L222.039 102.205C222.267 101.674 222.57 101.261 222.949 100.966C223.331 100.667 223.748 100.458 224.199 100.341C224.653 100.22 225.1 100.159 225.539 100.159C225.82 100.159 226.142 100.193 226.505 100.261C226.873 100.326 227.227 100.46 227.568 100.665C227.913 100.869 228.199 101.178 228.426 101.591C228.653 102.004 228.767 102.557 228.767 103.25V109H227.426V107.818H227.358C227.267 108.008 227.115 108.21 226.903 108.426C226.691 108.642 226.409 108.826 226.056 108.977C225.704 109.129 225.274 109.205 224.767 109.205ZM224.971 108C225.502 108 225.949 107.896 226.312 107.688C226.68 107.479 226.956 107.21 227.142 106.881C227.331 106.551 227.426 106.205 227.426 105.841V104.614C227.369 104.682 227.244 104.744 227.051 104.801C226.861 104.854 226.642 104.902 226.392 104.943C226.145 104.981 225.905 105.015 225.67 105.045C225.439 105.072 225.252 105.095 225.108 105.114C224.759 105.159 224.433 105.233 224.13 105.335C223.831 105.434 223.589 105.583 223.403 105.784C223.221 105.981 223.13 106.25 223.13 106.591C223.13 107.057 223.303 107.409 223.647 107.648C223.996 107.883 224.437 108 224.971 108ZM230.734 109V100.273H232.03V101.636H232.143C232.325 101.17 232.619 100.809 233.024 100.551C233.429 100.29 233.916 100.159 234.484 100.159C235.06 100.159 235.539 100.29 235.922 100.551C236.308 100.809 236.609 101.17 236.825 101.636H236.916C237.139 101.186 237.475 100.828 237.922 100.562C238.369 100.294 238.905 100.159 239.53 100.159C240.31 100.159 240.948 100.403 241.444 100.892C241.941 101.377 242.189 102.133 242.189 103.159V109H240.848V103.159C240.848 102.515 240.672 102.055 240.319 101.778C239.967 101.502 239.552 101.364 239.075 101.364C238.461 101.364 237.986 101.549 237.649 101.92C237.312 102.288 237.143 102.754 237.143 103.318V109H235.78V103.023C235.78 102.527 235.619 102.127 235.297 101.824C234.975 101.517 234.56 101.364 234.052 101.364C233.704 101.364 233.378 101.456 233.075 101.642C232.776 101.828 232.533 102.085 232.348 102.415C232.166 102.741 232.075 103.117 232.075 103.545V109H230.734ZM244.16 109V100.273H245.501V109H244.16ZM244.842 98.8182C244.581 98.8182 244.355 98.7292 244.166 98.5511C243.98 98.3731 243.888 98.1591 243.888 97.9091C243.888 97.6591 243.98 97.4451 244.166 97.267C244.355 97.089 244.581 97 244.842 97C245.104 97 245.327 97.089 245.513 97.267C245.702 97.4451 245.797 97.6591 245.797 97.9091C245.797 98.1591 245.702 98.3731 245.513 98.5511C245.327 98.7292 245.104 98.8182 244.842 98.8182ZM247.477 109V100.273H248.773V101.636H248.886C249.068 101.17 249.362 100.809 249.767 100.551C250.172 100.29 250.659 100.159 251.227 100.159C251.803 100.159 252.282 100.29 252.665 100.551C253.051 100.809 253.352 101.17 253.568 101.636H253.659C253.883 101.186 254.218 100.828 254.665 100.562C255.112 100.294 255.648 100.159 256.273 100.159C257.053 100.159 257.691 100.403 258.188 100.892C258.684 101.377 258.932 102.133 258.932 103.159V109H257.591V103.159C257.591 102.515 257.415 102.055 257.062 101.778C256.71 101.502 256.295 101.364 255.818 101.364C255.205 101.364 254.729 101.549 254.392 101.92C254.055 102.288 253.886 102.754 253.886 103.318V109H252.523V103.023C252.523 102.527 252.362 102.127 252.04 101.824C251.718 101.517 251.303 101.364 250.795 101.364C250.447 101.364 250.121 101.456 249.818 101.642C249.519 101.828 249.277 102.085 249.091 102.415C248.909 102.741 248.818 103.117 248.818 103.545V109H247.477ZM266.174 105.818L266.151 104.159H266.424L270.242 100.273H271.901L267.833 104.386H267.719L266.174 105.818ZM264.924 109V97.3636H266.264V109H264.924ZM270.469 109L267.06 104.682L268.014 103.75L272.174 109H270.469ZM276.446 109.182C275.605 109.182 274.88 108.996 274.27 108.625C273.664 108.25 273.196 107.727 272.867 107.057C272.541 106.383 272.378 105.598 272.378 104.705C272.378 103.811 272.541 103.023 272.867 102.341C273.196 101.655 273.655 101.121 274.242 100.739C274.833 100.352 275.522 100.159 276.31 100.159C276.765 100.159 277.213 100.235 277.657 100.386C278.1 100.538 278.503 100.784 278.867 101.125C279.23 101.462 279.52 101.909 279.736 102.466C279.952 103.023 280.06 103.708 280.06 104.523V105.091H273.333V103.932H278.696C278.696 103.439 278.598 103 278.401 102.614C278.208 102.227 277.931 101.922 277.571 101.699C277.215 101.475 276.795 101.364 276.31 101.364C275.776 101.364 275.314 101.496 274.924 101.761C274.537 102.023 274.24 102.364 274.032 102.784C273.823 103.205 273.719 103.655 273.719 104.136V104.909C273.719 105.568 273.833 106.127 274.06 106.585C274.291 107.04 274.611 107.386 275.02 107.625C275.429 107.86 275.905 107.977 276.446 107.977C276.799 107.977 277.117 107.928 277.401 107.83C277.689 107.727 277.937 107.576 278.145 107.375C278.354 107.17 278.515 106.917 278.628 106.614L279.924 106.977C279.787 107.417 279.558 107.803 279.236 108.136C278.914 108.466 278.516 108.723 278.043 108.909C277.569 109.091 277.037 109.182 276.446 109.182ZM281.62 109V100.273H282.915V101.591H283.006C283.165 101.159 283.453 100.809 283.87 100.54C284.286 100.271 284.756 100.136 285.279 100.136C285.377 100.136 285.5 100.138 285.648 100.142C285.796 100.146 285.908 100.152 285.983 100.159V101.523C285.938 101.511 285.834 101.494 285.671 101.472C285.512 101.445 285.343 101.432 285.165 101.432C284.741 101.432 284.362 101.521 284.029 101.699C283.699 101.873 283.438 102.116 283.245 102.426C283.055 102.733 282.961 103.083 282.961 103.477V109H281.62ZM289.661 109.205C289.108 109.205 288.606 109.1 288.155 108.892C287.705 108.68 287.347 108.375 287.082 107.977C286.816 107.576 286.684 107.091 286.684 106.523C286.684 106.023 286.782 105.617 286.979 105.307C287.176 104.992 287.439 104.746 287.769 104.568C288.099 104.39 288.462 104.258 288.86 104.17C289.261 104.08 289.665 104.008 290.07 103.955C290.6 103.886 291.03 103.835 291.36 103.801C291.693 103.763 291.936 103.701 292.087 103.614C292.243 103.527 292.32 103.375 292.32 103.159V103.114C292.32 102.553 292.167 102.117 291.86 101.807C291.557 101.496 291.097 101.341 290.479 101.341C289.839 101.341 289.337 101.481 288.974 101.761C288.61 102.042 288.354 102.341 288.207 102.659L286.934 102.205C287.161 101.674 287.464 101.261 287.843 100.966C288.225 100.667 288.642 100.458 289.093 100.341C289.547 100.22 289.994 100.159 290.434 100.159C290.714 100.159 291.036 100.193 291.4 100.261C291.767 100.326 292.121 100.46 292.462 100.665C292.807 100.869 293.093 101.178 293.32 101.591C293.547 102.004 293.661 102.557 293.661 103.25V109H292.32V107.818H292.252C292.161 108.008 292.01 108.21 291.797 108.426C291.585 108.642 291.303 108.826 290.951 108.977C290.599 109.129 290.169 109.205 289.661 109.205ZM289.866 108C290.396 108 290.843 107.896 291.207 107.688C291.574 107.479 291.85 107.21 292.036 106.881C292.225 106.551 292.32 106.205 292.32 105.841V104.614C292.263 104.682 292.138 104.744 291.945 104.801C291.756 104.854 291.536 104.902 291.286 104.943C291.04 104.981 290.799 105.015 290.564 105.045C290.333 105.072 290.146 105.095 290.002 105.114C289.654 105.159 289.328 105.233 289.025 105.335C288.725 105.434 288.483 105.583 288.297 105.784C288.116 105.981 288.025 106.25 288.025 106.591C288.025 107.057 288.197 107.409 288.542 107.648C288.89 107.883 289.332 108 289.866 108ZM296.879 105.818L296.856 104.159H297.129L300.947 100.273H302.606L298.538 104.386H298.424L296.879 105.818ZM295.629 109V97.3636H296.969V109H295.629ZM301.174 109L297.765 104.682L298.719 103.75L302.879 109H301.174ZM51.4091 129V117.364H52.75V121.659H52.8636C52.9621 121.508 53.0985 121.314 53.2727 121.08C53.4508 120.841 53.7045 120.629 54.0341 120.443C54.3674 120.254 54.8182 120.159 55.3864 120.159C56.1212 120.159 56.7689 120.343 57.3295 120.71C57.8902 121.078 58.3277 121.598 58.642 122.273C58.9564 122.947 59.1136 123.742 59.1136 124.659C59.1136 125.583 58.9564 126.384 58.642 127.062C58.3277 127.737 57.892 128.259 57.3352 128.631C56.7784 128.998 56.1364 129.182 55.4091 129.182C54.8485 129.182 54.3996 129.089 54.0625 128.903C53.7254 128.714 53.4659 128.5 53.2841 128.261C53.1023 128.019 52.9621 127.818 52.8636 127.659H52.7045V129H51.4091ZM52.7273 124.636C52.7273 125.295 52.8239 125.877 53.017 126.381C53.2102 126.881 53.4924 127.273 53.8636 127.557C54.2348 127.837 54.6894 127.977 55.2273 127.977C55.7879 127.977 56.2557 127.83 56.6307 127.534C57.0095 127.235 57.2936 126.833 57.483 126.33C57.6761 125.822 57.7727 125.258 57.7727 124.636C57.7727 124.023 57.678 123.47 57.4886 122.977C57.303 122.481 57.0208 122.089 56.642 121.801C56.267 121.509 55.7955 121.364 55.2273 121.364C54.6818 121.364 54.2235 121.502 53.8523 121.778C53.4811 122.051 53.2008 122.434 53.0114 122.926C52.822 123.415 52.7273 123.985 52.7273 124.636ZM64.2302 129.182C63.4423 129.182 62.7511 128.994 62.1564 128.619C61.5655 128.244 61.1033 127.72 60.77 127.045C60.4405 126.371 60.2757 125.583 60.2757 124.682C60.2757 123.773 60.4405 122.979 60.77 122.301C61.1033 121.623 61.5655 121.097 62.1564 120.722C62.7511 120.347 63.4423 120.159 64.2302 120.159C65.0181 120.159 65.7075 120.347 66.2984 120.722C66.8931 121.097 67.3552 121.623 67.6848 122.301C68.0181 122.979 68.1848 123.773 68.1848 124.682C68.1848 125.583 68.0181 126.371 67.6848 127.045C67.3552 127.72 66.8931 128.244 66.2984 128.619C65.7075 128.994 65.0181 129.182 64.2302 129.182ZM64.2302 127.977C64.8287 127.977 65.3211 127.824 65.7075 127.517C66.0939 127.21 66.3798 126.807 66.5655 126.307C66.7511 125.807 66.8439 125.265 66.8439 124.682C66.8439 124.098 66.7511 123.555 66.5655 123.051C66.3798 122.547 66.0939 122.14 65.7075 121.83C65.3211 121.519 64.8287 121.364 64.2302 121.364C63.6317 121.364 63.1393 121.519 62.753 121.83C62.3666 122.14 62.0806 122.547 61.895 123.051C61.7094 123.555 61.6166 124.098 61.6166 124.682C61.6166 125.265 61.7094 125.807 61.895 126.307C62.0806 126.807 62.3666 127.21 62.753 127.517C63.1393 127.824 63.6317 127.977 64.2302 127.977ZM68.2971 121V119.977C68.2971 119.667 68.352 119.337 68.4619 118.989C68.5755 118.636 68.7384 118.297 68.9505 117.972C69.1664 117.642 69.4259 117.356 69.7289 117.114L70.4562 117.705C70.2176 118.045 70.0092 118.402 69.8312 118.773C69.657 119.14 69.5698 119.534 69.5698 119.955V121H68.2971ZM72.8001 117.364V129H71.4591V117.364H72.8001ZM80.9578 122.227L79.7533 122.568C79.6775 122.367 79.5658 122.172 79.4181 121.983C79.2741 121.79 79.0772 121.631 78.8272 121.506C78.5772 121.381 78.2571 121.318 77.8669 121.318C77.3328 121.318 76.8878 121.441 76.5317 121.688C76.1794 121.93 76.0033 122.239 76.0033 122.614C76.0033 122.947 76.1245 123.21 76.3669 123.403C76.6094 123.597 76.9881 123.758 77.5033 123.886L78.7987 124.205C79.5791 124.394 80.1605 124.684 80.5431 125.074C80.9256 125.46 81.1169 125.958 81.1169 126.568C81.1169 127.068 80.973 127.515 80.6851 127.909C80.401 128.303 80.0033 128.614 79.4919 128.841C78.9806 129.068 78.3859 129.182 77.7078 129.182C76.8177 129.182 76.0809 128.989 75.4976 128.602C74.9143 128.216 74.545 127.652 74.3897 126.909L75.6624 126.591C75.7836 127.061 76.0128 127.413 76.3499 127.648C76.6908 127.883 77.1359 128 77.6851 128C78.3101 128 78.8063 127.867 79.1737 127.602C79.545 127.333 79.7306 127.011 79.7306 126.636C79.7306 126.333 79.6245 126.08 79.4124 125.875C79.2003 125.667 78.8745 125.511 78.4351 125.409L76.9806 125.068C76.1813 124.879 75.5942 124.585 75.2192 124.188C74.848 123.786 74.6624 123.284 74.6624 122.682C74.6624 122.189 74.8006 121.754 75.0772 121.375C75.3575 120.996 75.7381 120.699 76.2192 120.483C76.7041 120.267 77.2533 120.159 77.8669 120.159C78.7306 120.159 79.4086 120.348 79.901 120.727C80.3972 121.106 80.7495 121.606 80.9578 122.227ZM85.2236 129.205C84.6705 129.205 84.1687 129.1 83.7179 128.892C83.2671 128.68 82.9092 128.375 82.644 127.977C82.3789 127.576 82.2463 127.091 82.2463 126.523C82.2463 126.023 82.3448 125.617 82.5418 125.307C82.7387 124.992 83.002 124.746 83.3315 124.568C83.6611 124.39 84.0247 124.258 84.4224 124.17C84.824 124.08 85.2274 124.008 85.6327 123.955C86.163 123.886 86.5929 123.835 86.9224 123.801C87.2558 123.763 87.4982 123.701 87.6497 123.614C87.805 123.527 87.8827 123.375 87.8827 123.159V123.114C87.8827 122.553 87.7293 122.117 87.4224 121.807C87.1194 121.496 86.6592 121.341 86.0418 121.341C85.4016 121.341 84.8997 121.481 84.5361 121.761C84.1724 122.042 83.9168 122.341 83.769 122.659L82.4963 122.205C82.7236 121.674 83.0266 121.261 83.4054 120.966C83.788 120.667 84.2046 120.458 84.6554 120.341C85.1099 120.22 85.5569 120.159 85.9963 120.159C86.2766 120.159 86.5986 120.193 86.9622 120.261C87.3296 120.326 87.6838 120.46 88.0247 120.665C88.3694 120.869 88.6554 121.178 88.8827 121.591C89.1099 122.004 89.2236 122.557 89.2236 123.25V129H87.8827V127.818H87.8145C87.7236 128.008 87.5721 128.21 87.3599 128.426C87.1478 128.642 86.8656 128.826 86.5134 128.977C86.1611 129.129 85.7312 129.205 85.2236 129.205ZM85.4281 128C85.9584 128 86.4054 127.896 86.769 127.688C87.1365 127.479 87.413 127.21 87.5986 126.881C87.788 126.551 87.8827 126.205 87.8827 125.841V124.614C87.8259 124.682 87.7009 124.744 87.5077 124.801C87.3183 124.854 87.0986 124.902 86.8486 124.943C86.6024 124.981 86.3618 125.015 86.127 125.045C85.8959 125.072 85.7084 125.095 85.5645 125.114C85.216 125.159 84.8902 125.233 84.5872 125.335C84.288 125.434 84.0455 125.583 83.8599 125.784C83.6781 125.981 83.5872 126.25 83.5872 126.591C83.5872 127.057 83.7596 127.409 84.1043 127.648C84.4527 127.883 84.894 128 85.4281 128ZM93.191 127.409L93.1001 128.023C93.0357 128.455 92.9372 128.917 92.8047 129.409C92.6759 129.902 92.5414 130.366 92.4012 130.801C92.2611 131.237 92.1456 131.583 92.0547 131.841H91.0319C91.0812 131.598 91.1456 131.278 91.2251 130.881C91.3047 130.483 91.3842 130.038 91.4637 129.545C91.5471 129.057 91.6153 128.557 91.6683 128.045L91.7365 127.409H93.191ZM99.3972 129V117.364H100.738V121.659H100.852C100.95 121.508 101.087 121.314 101.261 121.08C101.439 120.841 101.693 120.629 102.022 120.443C102.356 120.254 102.806 120.159 103.374 120.159C104.109 120.159 104.757 120.343 105.318 120.71C105.878 121.078 106.316 121.598 106.63 122.273C106.945 122.947 107.102 123.742 107.102 124.659C107.102 125.583 106.945 126.384 106.63 127.062C106.316 127.737 105.88 128.259 105.323 128.631C104.767 128.998 104.124 129.182 103.397 129.182C102.837 129.182 102.388 129.089 102.051 128.903C101.714 128.714 101.454 128.5 101.272 128.261C101.09 128.019 100.95 127.818 100.852 127.659H100.693V129H99.3972ZM100.715 124.636C100.715 125.295 100.812 125.877 101.005 126.381C101.198 126.881 101.481 127.273 101.852 127.557C102.223 127.837 102.678 127.977 103.215 127.977C103.776 127.977 104.244 127.83 104.619 127.534C104.998 127.235 105.282 126.833 105.471 126.33C105.664 125.822 105.761 125.258 105.761 124.636C105.761 124.023 105.666 123.47 105.477 122.977C105.291 122.481 105.009 122.089 104.63 121.801C104.255 121.509 103.784 121.364 103.215 121.364C102.67 121.364 102.212 121.502 101.84 121.778C101.469 122.051 101.189 122.434 100.999 122.926C100.81 123.415 100.715 123.985 100.715 124.636ZM112.332 129.182C111.491 129.182 110.766 128.996 110.156 128.625C109.55 128.25 109.082 127.727 108.752 127.057C108.427 126.383 108.264 125.598 108.264 124.705C108.264 123.811 108.427 123.023 108.752 122.341C109.082 121.655 109.54 121.121 110.127 120.739C110.718 120.352 111.408 120.159 112.196 120.159C112.65 120.159 113.099 120.235 113.542 120.386C113.985 120.538 114.389 120.784 114.752 121.125C115.116 121.462 115.406 121.909 115.622 122.466C115.838 123.023 115.946 123.708 115.946 124.523V125.091H109.218V123.932H114.582C114.582 123.439 114.484 123 114.287 122.614C114.093 122.227 113.817 121.922 113.457 121.699C113.101 121.475 112.68 121.364 112.196 121.364C111.662 121.364 111.199 121.496 110.809 121.761C110.423 122.023 110.126 122.364 109.917 122.784C109.709 123.205 109.605 123.655 109.605 124.136V124.909C109.605 125.568 109.718 126.127 109.946 126.585C110.177 127.04 110.497 127.386 110.906 127.625C111.315 127.86 111.79 127.977 112.332 127.977C112.684 127.977 113.002 127.928 113.287 127.83C113.574 127.727 113.823 127.576 114.031 127.375C114.239 127.17 114.4 126.917 114.514 126.614L115.809 126.977C115.673 127.417 115.444 127.803 115.122 128.136C114.8 128.466 114.402 128.723 113.929 128.909C113.455 129.091 112.923 129.182 112.332 129.182ZM117.505 129V120.273H118.801V121.636H118.914C119.096 121.17 119.39 120.809 119.795 120.551C120.2 120.29 120.687 120.159 121.255 120.159C121.831 120.159 122.31 120.29 122.693 120.551C123.079 120.809 123.38 121.17 123.596 121.636H123.687C123.911 121.186 124.246 120.828 124.693 120.562C125.14 120.294 125.676 120.159 126.301 120.159C127.081 120.159 127.719 120.403 128.216 120.892C128.712 121.377 128.96 122.133 128.96 123.159V129H127.619V123.159C127.619 122.515 127.443 122.055 127.091 121.778C126.738 121.502 126.324 121.364 125.846 121.364C125.233 121.364 124.757 121.549 124.42 121.92C124.083 122.288 123.914 122.754 123.914 123.318V129H122.551V123.023C122.551 122.527 122.39 122.127 122.068 121.824C121.746 121.517 121.331 121.364 120.824 121.364C120.475 121.364 120.149 121.456 119.846 121.642C119.547 121.828 119.305 122.085 119.119 122.415C118.937 122.741 118.846 123.117 118.846 123.545V129H117.505ZM133.5 129.205C132.947 129.205 132.445 129.1 131.994 128.892C131.543 128.68 131.185 128.375 130.92 127.977C130.655 127.576 130.523 127.091 130.523 126.523C130.523 126.023 130.621 125.617 130.818 125.307C131.015 124.992 131.278 124.746 131.608 124.568C131.937 124.39 132.301 124.258 132.699 124.17C133.1 124.08 133.504 124.008 133.909 123.955C134.439 123.886 134.869 123.835 135.199 123.801C135.532 123.763 135.774 123.701 135.926 123.614C136.081 123.527 136.159 123.375 136.159 123.159V123.114C136.159 122.553 136.006 122.117 135.699 121.807C135.396 121.496 134.935 121.341 134.318 121.341C133.678 121.341 133.176 121.481 132.812 121.761C132.449 122.042 132.193 122.341 132.045 122.659L130.773 122.205C131 121.674 131.303 121.261 131.682 120.966C132.064 120.667 132.481 120.458 132.932 120.341C133.386 120.22 133.833 120.159 134.273 120.159C134.553 120.159 134.875 120.193 135.238 120.261C135.606 120.326 135.96 120.46 136.301 120.665C136.646 120.869 136.932 121.178 137.159 121.591C137.386 122.004 137.5 122.557 137.5 123.25V129H136.159V127.818H136.091C136 128.008 135.848 128.21 135.636 128.426C135.424 128.642 135.142 128.826 134.79 128.977C134.437 129.129 134.007 129.205 133.5 129.205ZM133.704 128C134.235 128 134.682 127.896 135.045 127.688C135.413 127.479 135.689 127.21 135.875 126.881C136.064 126.551 136.159 126.205 136.159 125.841V124.614C136.102 124.682 135.977 124.744 135.784 124.801C135.595 124.854 135.375 124.902 135.125 124.943C134.879 124.981 134.638 125.015 134.403 125.045C134.172 125.072 133.985 125.095 133.841 125.114C133.492 125.159 133.166 125.233 132.863 125.335C132.564 125.434 132.322 125.583 132.136 125.784C131.954 125.981 131.863 126.25 131.863 126.591C131.863 127.057 132.036 127.409 132.381 127.648C132.729 127.883 133.17 128 133.704 128ZM140.808 117.364V129H139.467V117.364H140.808ZM146.33 129.182C145.542 129.182 144.85 128.994 144.256 128.619C143.665 128.244 143.203 127.72 142.869 127.045C142.54 126.371 142.375 125.583 142.375 124.682C142.375 123.773 142.54 122.979 142.869 122.301C143.203 121.623 143.665 121.097 144.256 120.722C144.85 120.347 145.542 120.159 146.33 120.159C147.117 120.159 147.807 120.347 148.398 120.722C148.992 121.097 149.455 121.623 149.784 122.301C150.117 122.979 150.284 123.773 150.284 124.682C150.284 125.583 150.117 126.371 149.784 127.045C149.455 127.72 148.992 128.244 148.398 128.619C147.807 128.994 147.117 129.182 146.33 129.182ZM146.33 127.977C146.928 127.977 147.421 127.824 147.807 127.517C148.193 127.21 148.479 126.807 148.665 126.307C148.85 125.807 148.943 125.265 148.943 124.682C148.943 124.098 148.85 123.555 148.665 123.051C148.479 122.547 148.193 122.14 147.807 121.83C147.421 121.519 146.928 121.364 146.33 121.364C145.731 121.364 145.239 121.519 144.852 121.83C144.466 122.14 144.18 122.547 143.994 123.051C143.809 123.555 143.716 124.098 143.716 124.682C143.716 125.265 143.809 125.807 143.994 126.307C144.18 126.807 144.466 127.21 144.852 127.517C145.239 127.824 145.731 127.977 146.33 127.977ZM153.192 117.364V129H151.851V117.364H153.192ZM160.052 132.273C159.824 132.273 159.622 132.254 159.444 132.216C159.266 132.182 159.142 132.148 159.074 132.114L159.415 130.932C159.741 131.015 160.029 131.045 160.279 131.023C160.529 131 160.75 130.888 160.944 130.688C161.141 130.491 161.32 130.17 161.483 129.727L161.733 129.045L158.506 120.273H159.961L162.37 127.227H162.461L164.87 120.273H166.324L162.62 130.273C162.453 130.723 162.247 131.097 162 131.392C161.754 131.691 161.468 131.913 161.142 132.057C160.82 132.201 160.457 132.273 160.052 132.273ZM170.847 129.182C170.059 129.182 169.368 128.994 168.773 128.619C168.182 128.244 167.72 127.72 167.387 127.045C167.057 126.371 166.893 125.583 166.893 124.682C166.893 123.773 167.057 122.979 167.387 122.301C167.72 121.623 168.182 121.097 168.773 120.722C169.368 120.347 170.059 120.159 170.847 120.159C171.635 120.159 172.324 120.347 172.915 120.722C173.51 121.097 173.972 121.623 174.302 122.301C174.635 122.979 174.802 123.773 174.802 124.682C174.802 125.583 174.635 126.371 174.302 127.045C173.972 127.72 173.51 128.244 172.915 128.619C172.324 128.994 171.635 129.182 170.847 129.182ZM170.847 127.977C171.446 127.977 171.938 127.824 172.324 127.517C172.711 127.21 172.997 126.807 173.182 126.307C173.368 125.807 173.461 125.265 173.461 124.682C173.461 124.098 173.368 123.555 173.182 123.051C172.997 122.547 172.711 122.14 172.324 121.83C171.938 121.519 171.446 121.364 170.847 121.364C170.249 121.364 169.756 121.519 169.37 121.83C168.983 122.14 168.697 122.547 168.512 123.051C168.326 123.555 168.233 124.098 168.233 124.682C168.233 125.265 168.326 125.807 168.512 126.307C168.697 126.807 168.983 127.21 169.37 127.517C169.756 127.824 170.249 127.977 170.847 127.977ZM176.119 129V127.977L181.073 121.614V121.523H176.278V120.273H182.8V121.341L177.982 127.659V127.75H182.959V129H176.119ZM184.545 129V120.273H185.886V129H184.545ZM185.227 118.818C184.965 118.818 184.74 118.729 184.55 118.551C184.365 118.373 184.272 118.159 184.272 117.909C184.272 117.659 184.365 117.445 184.55 117.267C184.74 117.089 184.965 117 185.227 117C185.488 117 185.711 117.089 185.897 117.267C186.086 117.445 186.181 117.659 186.181 117.909C186.181 118.159 186.086 118.373 185.897 118.551C185.711 118.729 185.488 118.818 185.227 118.818ZM189.203 123.75V129H187.862V120.273H189.157V121.636H189.271C189.475 121.193 189.786 120.837 190.203 120.568C190.619 120.295 191.157 120.159 191.816 120.159C192.407 120.159 192.924 120.28 193.367 120.523C193.811 120.761 194.155 121.125 194.401 121.614C194.648 122.098 194.771 122.712 194.771 123.455V129H193.43V123.545C193.43 122.86 193.252 122.326 192.896 121.943C192.54 121.557 192.051 121.364 191.43 121.364C191.002 121.364 190.619 121.456 190.282 121.642C189.949 121.828 189.686 122.098 189.492 122.455C189.299 122.811 189.203 123.242 189.203 123.75ZM200.264 132.455C199.616 132.455 199.059 132.371 198.593 132.205C198.127 132.042 197.739 131.826 197.429 131.557C197.122 131.292 196.877 131.008 196.696 130.705L197.764 129.955C197.885 130.114 198.038 130.295 198.224 130.5C198.41 130.708 198.663 130.888 198.985 131.04C199.311 131.195 199.737 131.273 200.264 131.273C200.968 131.273 201.55 131.102 202.008 130.761C202.466 130.42 202.696 129.886 202.696 129.159V127.386H202.582C202.483 127.545 202.343 127.742 202.161 127.977C201.983 128.208 201.726 128.415 201.389 128.597C201.055 128.775 200.605 128.864 200.036 128.864C199.332 128.864 198.699 128.697 198.139 128.364C197.582 128.03 197.141 127.545 196.815 126.909C196.493 126.273 196.332 125.5 196.332 124.591C196.332 123.697 196.489 122.919 196.804 122.256C197.118 121.589 197.555 121.074 198.116 120.71C198.677 120.343 199.324 120.159 200.059 120.159C200.627 120.159 201.078 120.254 201.411 120.443C201.749 120.629 202.006 120.841 202.184 121.08C202.366 121.314 202.506 121.508 202.605 121.659H202.741V120.273H204.036V129.25C204.036 130 203.866 130.61 203.525 131.08C203.188 131.553 202.733 131.9 202.161 132.119C201.593 132.343 200.961 132.455 200.264 132.455ZM200.218 127.659C200.756 127.659 201.211 127.536 201.582 127.29C201.953 127.044 202.235 126.689 202.429 126.227C202.622 125.765 202.718 125.212 202.718 124.568C202.718 123.939 202.624 123.384 202.434 122.903C202.245 122.422 201.965 122.045 201.593 121.773C201.222 121.5 200.764 121.364 200.218 121.364C199.65 121.364 199.177 121.508 198.798 121.795C198.423 122.083 198.141 122.47 197.951 122.955C197.766 123.439 197.673 123.977 197.673 124.568C197.673 125.174 197.768 125.71 197.957 126.176C198.15 126.638 198.434 127.002 198.809 127.267C199.188 127.528 199.658 127.659 200.218 127.659Z" fill="black"/>
<path d="M328.513 121.273V130H327.192V122.594H327.141L325.053 123.957V122.696L327.23 121.273H328.513ZM330.808 130L334.618 122.466V122.402H330.211V121.273H335.981V122.44L332.184 130H330.808ZM337.55 128.918C337.317 128.918 337.116 128.835 336.949 128.67C336.781 128.503 336.697 128.301 336.697 128.065C336.697 127.832 336.781 127.634 336.949 127.469C337.116 127.301 337.317 127.217 337.55 127.217C337.782 127.217 337.983 127.301 338.15 127.469C338.318 127.634 338.402 127.832 338.402 128.065C338.402 128.222 338.362 128.365 338.282 128.496C338.206 128.624 338.104 128.726 337.976 128.803C337.848 128.879 337.706 128.918 337.55 128.918ZM337.55 124.545C337.317 124.545 337.116 124.463 336.949 124.298C336.781 124.131 336.697 123.929 336.697 123.693C336.697 123.46 336.781 123.261 336.949 123.097C337.116 122.929 337.317 122.845 337.55 122.845C337.782 122.845 337.983 122.929 338.15 123.097C338.318 123.261 338.402 123.46 338.402 123.693C338.402 123.849 338.362 123.993 338.282 124.124C338.206 124.251 338.104 124.354 337.976 124.43C337.848 124.507 337.706 124.545 337.55 124.545ZM339.731 130V129.045L342.685 125.986C343 125.653 343.26 125.362 343.464 125.112C343.672 124.859 343.827 124.619 343.929 124.392C344.031 124.165 344.082 123.923 344.082 123.668C344.082 123.378 344.014 123.128 343.878 122.918C343.741 122.705 343.555 122.541 343.32 122.428C343.084 122.311 342.818 122.253 342.523 122.253C342.21 122.253 341.937 122.317 341.704 122.445C341.471 122.572 341.293 122.753 341.168 122.986C341.043 123.219 340.98 123.491 340.98 123.804H339.723C339.723 123.273 339.845 122.808 340.089 122.411C340.334 122.013 340.669 121.705 341.095 121.486C341.521 121.264 342.006 121.153 342.548 121.153C343.096 121.153 343.579 121.263 343.997 121.482C344.418 121.697 344.746 121.993 344.981 122.368C345.217 122.74 345.335 123.161 345.335 123.629C345.335 123.953 345.274 124.27 345.152 124.58C345.033 124.889 344.824 125.234 344.525 125.615C344.227 125.993 343.812 126.452 343.281 126.991L341.547 128.807V128.871H345.476V130H339.731ZM349.769 130.145C349.096 130.142 348.521 129.964 348.043 129.612C347.566 129.26 347.201 128.747 346.948 128.074C346.695 127.401 346.569 126.589 346.569 125.641C346.569 124.695 346.695 123.886 346.948 123.216C347.204 122.545 347.57 122.034 348.048 121.682C348.528 121.33 349.102 121.153 349.769 121.153C350.437 121.153 351.009 121.331 351.486 121.686C351.964 122.038 352.329 122.55 352.582 123.22C352.837 123.888 352.965 124.695 352.965 125.641C352.965 126.592 352.839 127.405 352.586 128.078C352.333 128.749 351.968 129.261 351.491 129.616C351.013 129.969 350.44 130.145 349.769 130.145ZM349.769 129.007C350.36 129.007 350.822 128.719 351.154 128.142C351.489 127.565 351.657 126.732 351.657 125.641C351.657 124.916 351.58 124.304 351.427 123.804C351.276 123.301 351.059 122.92 350.775 122.662C350.494 122.401 350.158 122.27 349.769 122.27C349.181 122.27 348.719 122.56 348.384 123.139C348.049 123.719 347.88 124.553 347.877 125.641C347.877 126.368 347.952 126.983 348.103 127.486C348.256 127.986 348.474 128.365 348.755 128.624C349.036 128.879 349.374 129.007 349.769 129.007Z" fill="#828282"/>
<path d="M172.649 14.1392C172.026 14.1392 171.466 14.0199 170.969 13.7812C170.475 13.5393 170.08 13.2079 169.785 12.7869C169.49 12.366 169.333 11.8854 169.313 11.3452H170.805C170.841 11.7827 171.035 12.1423 171.386 12.424C171.738 12.7057 172.158 12.8466 172.649 12.8466C173.04 12.8466 173.386 12.7571 173.688 12.5781C173.993 12.3958 174.232 12.1456 174.404 11.8274C174.58 11.5092 174.667 11.1463 174.667 10.7386C174.667 10.3243 174.578 9.95478 174.399 9.62997C174.22 9.30516 173.973 9.04995 173.658 8.86435C173.347 8.67874 172.989 8.58428 172.584 8.58097C172.276 8.58097 171.966 8.634 171.655 8.74006C171.343 8.84612 171.091 8.98532 170.899 9.15767L169.492 8.94886L170.064 3.81818H175.662V5.13565H171.341L171.018 7.98438H171.078C171.277 7.79214 171.54 7.63139 171.868 7.50213C172.2 7.37287 172.555 7.30824 172.932 7.30824C173.552 7.30824 174.104 7.45573 174.588 7.75071C175.075 8.04569 175.458 8.44839 175.736 8.95881C176.018 9.46591 176.157 10.0492 176.154 10.7088C176.157 11.3684 176.008 11.9567 175.707 12.4737C175.408 12.9908 174.994 13.3984 174.464 13.6967C173.937 13.9917 173.332 14.1392 172.649 14.1392ZM182.51 3.81818V14H180.974V3.81818H182.51ZM185.148 16.8636C184.926 16.8636 184.724 16.8454 184.541 16.8089C184.359 16.7758 184.223 16.7393 184.134 16.6996L184.492 15.4815C184.763 15.5545 185.005 15.5859 185.218 15.576C185.43 15.5661 185.617 15.4865 185.779 15.3374C185.945 15.1882 186.091 14.9446 186.217 14.6065L186.401 14.0994L183.607 6.36364H185.198L187.132 12.2898H187.211L189.145 6.36364H190.741L187.594 15.0192C187.448 15.4169 187.262 15.7533 187.037 16.0284C186.812 16.3068 186.543 16.5156 186.232 16.6548C185.92 16.794 185.559 16.8636 185.148 16.8636ZM196.555 10.8331V6.36364H198.047V14H196.585V12.6776H196.506C196.33 13.0852 196.048 13.425 195.66 13.6967C195.276 13.9652 194.797 14.0994 194.224 14.0994C193.733 14.0994 193.299 13.9917 192.921 13.7763C192.547 13.5575 192.252 13.2344 192.036 12.8068C191.824 12.3793 191.718 11.8506 191.718 11.2209V6.36364H193.204V11.0419C193.204 11.5623 193.349 11.9766 193.637 12.2848C193.925 12.593 194.3 12.7472 194.761 12.7472C195.039 12.7472 195.316 12.6776 195.591 12.5384C195.869 12.3991 196.1 12.1887 196.282 11.907C196.467 11.6252 196.559 11.2673 196.555 10.8331ZM201.111 3.81818V14H199.624V3.81818H201.111Z" fill="#828282"/>
<circle cx="12" cy="51" r="11.5" stroke="#BABABA"/>
<circle cx="12" cy="113" r="11.5" stroke="#BABABA"/>
<path d="M34 97C34 90.3726 39.3726 85 46 85H358C364.627 85 370 90.3726 370 97V129C370 135.627 364.627 141 358 141H34V97Z" fill="#05972E" fill-opacity="0.15"/>
<rect y="101" width="24" height="24" rx="12" fill="#05972E"/>
<path d="M10.6665 115.114L16.7947 108.986L17.7375 109.929L10.6665 117L6.42383 112.757L7.36664 111.814L10.6665 115.114Z" fill="white"/>
</svg>
