<svg width="251" height="254" viewBox="0 0 251 254" fill="none" xmlns="http://www.w3.org/2000/svg">
<path d="M22 27C22 20.3726 27.3726 15 34 15H226C232.627 15 238 20.3726 238 27V51H34C27.3726 51 22 45.6274 22 39V27Z" fill="#05972E"/>
<path d="M36.3535 39H34.8763L39.149 27.3636H40.6035L44.8763 39H43.399L39.9217 29.2045H39.8308L36.3535 39ZM36.899 34.4545H42.8535V35.7045H36.899V34.4545ZM52.2088 32.2273L51.0042 32.5682C50.9285 32.3674 50.8167 32.1723 50.669 31.983C50.5251 31.7898 50.3281 31.6307 50.0781 31.5057C49.8281 31.3807 49.508 31.3182 49.1179 31.3182C48.5838 31.3182 48.1387 31.4413 47.7826 31.6875C47.4304 31.9299 47.2542 32.2386 47.2542 32.6136C47.2542 32.947 47.3754 33.2102 47.6179 33.4034C47.8603 33.5966 48.2391 33.7576 48.7542 33.8864L50.0497 34.2045C50.83 34.3939 51.4114 34.6837 51.794 35.0739C52.1766 35.4602 52.3679 35.9583 52.3679 36.5682C52.3679 37.0682 52.2239 37.5152 51.9361 37.9091C51.652 38.303 51.2542 38.6136 50.7429 38.8409C50.2315 39.0682 49.6368 39.1818 48.9588 39.1818C48.0686 39.1818 47.3319 38.9886 46.7486 38.6023C46.1652 38.2159 45.7959 37.6515 45.6406 36.9091L46.9133 36.5909C47.0345 37.0606 47.2637 37.4129 47.6008 37.6477C47.9417 37.8826 48.3868 38 48.9361 38C49.5611 38 50.0573 37.8674 50.4247 37.6023C50.7959 37.3333 50.9815 37.0114 50.9815 36.6364C50.9815 36.3333 50.8754 36.0795 50.6633 35.875C50.4512 35.6667 50.1254 35.5114 49.6861 35.4091L48.2315 35.0682C47.4323 34.8788 46.8451 34.5852 46.4701 34.1875C46.0989 33.786 45.9133 33.2841 45.9133 32.6818C45.9133 32.1894 46.0516 31.7538 46.3281 31.375C46.6084 30.9962 46.9891 30.6989 47.4701 30.483C47.955 30.267 48.5042 30.1591 49.1179 30.1591C49.9815 30.1591 50.6595 30.3485 51.152 30.7273C51.6482 31.1061 52.0004 31.6061 52.2088 32.2273ZM60.0882 32.2273L58.8836 32.5682C58.8079 32.3674 58.6961 32.1723 58.5484 31.983C58.4044 31.7898 58.2075 31.6307 57.9575 31.5057C57.7075 31.3807 57.3874 31.3182 56.9972 31.3182C56.4632 31.3182 56.0181 31.4413 55.662 31.6875C55.3097 31.9299 55.1336 32.2386 55.1336 32.6136C55.1336 32.947 55.2548 33.2102 55.4972 33.4034C55.7397 33.5966 56.1185 33.7576 56.6336 33.8864L57.9291 34.2045C58.7094 34.3939 59.2908 34.6837 59.6734 35.0739C60.056 35.4602 60.2472 35.9583 60.2472 36.5682C60.2472 37.0682 60.1033 37.5152 59.8154 37.9091C59.5313 38.303 59.1336 38.6136 58.6222 38.8409C58.1109 39.0682 57.5162 39.1818 56.8382 39.1818C55.948 39.1818 55.2113 38.9886 54.6279 38.6023C54.0446 38.2159 53.6753 37.6515 53.52 36.9091L54.7927 36.5909C54.9139 37.0606 55.1431 37.4129 55.4802 37.6477C55.8211 37.8826 56.2662 38 56.8154 38C57.4404 38 57.9366 37.8674 58.3041 37.6023C58.6753 37.3333 58.8609 37.0114 58.8609 36.6364C58.8609 36.3333 58.7548 36.0795 58.5427 35.875C58.3306 35.6667 58.0048 35.5114 57.5654 35.4091L56.1109 35.0682C55.3116 34.8788 54.7245 34.5852 54.3495 34.1875C53.9783 33.786 53.7927 33.2841 53.7927 32.6818C53.7927 32.1894 53.931 31.7538 54.2075 31.375C54.4878 30.9962 54.8685 30.6989 55.3495 30.483C55.8344 30.267 56.3836 30.1591 56.9972 30.1591C57.8609 30.1591 58.5389 30.3485 59.0313 30.7273C59.5275 31.1061 59.8798 31.6061 60.0882 32.2273ZM64.3539 39.2045C63.8009 39.2045 63.299 39.1004 62.8482 38.892C62.3975 38.6799 62.0395 38.375 61.7743 37.9773C61.5092 37.5758 61.3766 37.0909 61.3766 36.5227C61.3766 36.0227 61.4751 35.6174 61.6721 35.3068C61.869 34.9924 62.1323 34.7462 62.4618 34.5682C62.7914 34.3902 63.155 34.2576 63.5528 34.1705C63.9543 34.0795 64.3577 34.0076 64.763 33.9545C65.2933 33.8864 65.7232 33.8352 66.0528 33.8011C66.3861 33.7633 66.6285 33.7008 66.78 33.6136C66.9353 33.5265 67.013 33.375 67.013 33.1591V33.1136C67.013 32.553 66.8596 32.1174 66.5528 31.8068C66.2497 31.4962 65.7895 31.3409 65.1721 31.3409C64.5319 31.3409 64.03 31.4811 63.6664 31.7614C63.3028 32.0417 63.0471 32.3409 62.8993 32.6591L61.6266 32.2045C61.8539 31.6742 62.1569 31.2614 62.5357 30.9659C62.9183 30.6667 63.335 30.4583 63.7857 30.3409C64.2403 30.2197 64.6872 30.1591 65.1266 30.1591C65.4069 30.1591 65.7289 30.1932 66.0925 30.2614C66.46 30.3258 66.8141 30.4602 67.155 30.6648C67.4997 30.8693 67.7857 31.178 68.013 31.5909C68.2403 32.0038 68.3539 32.5568 68.3539 33.25V39H67.013V37.8182H66.9448C66.8539 38.0076 66.7024 38.2102 66.4903 38.4261C66.2781 38.642 65.9959 38.8258 65.6437 38.9773C65.2914 39.1288 64.8615 39.2045 64.3539 39.2045ZM64.5584 38C65.0887 38 65.5357 37.8958 65.8993 37.6875C66.2668 37.4792 66.5433 37.2102 66.7289 36.8807C66.9183 36.5511 67.013 36.2045 67.013 35.8409V34.6136C66.9562 34.6818 66.8312 34.7443 66.638 34.8011C66.4486 34.8542 66.2289 34.9015 65.9789 34.9432C65.7327 34.9811 65.4921 35.0152 65.2573 35.0455C65.0262 35.072 64.8387 35.0947 64.6948 35.1136C64.3463 35.1591 64.0206 35.233 63.7175 35.3352C63.4183 35.4337 63.1759 35.5833 62.9903 35.7841C62.8084 35.9811 62.7175 36.25 62.7175 36.5909C62.7175 37.0568 62.8899 37.4091 63.2346 37.6477C63.5831 37.8826 64.0243 38 64.5584 38ZM71.6622 27.3636V39H70.3213V27.3636H71.6622ZM77.1837 39.1818C76.3958 39.1818 75.7045 38.9943 75.1098 38.6193C74.5189 38.2443 74.0568 37.7197 73.7234 37.0455C73.3939 36.3712 73.2291 35.5833 73.2291 34.6818C73.2291 33.7727 73.3939 32.9792 73.7234 32.3011C74.0568 31.6231 74.5189 31.0966 75.1098 30.7216C75.7045 30.3466 76.3958 30.1591 77.1837 30.1591C77.9715 30.1591 78.6609 30.3466 79.2518 30.7216C79.8465 31.0966 80.3087 31.6231 80.6382 32.3011C80.9715 32.9792 81.1382 33.7727 81.1382 34.6818C81.1382 35.5833 80.9715 36.3712 80.6382 37.0455C80.3087 37.7197 79.8465 38.2443 79.2518 38.6193C78.6609 38.9943 77.9715 39.1818 77.1837 39.1818ZM77.1837 37.9773C77.7821 37.9773 78.2746 37.8239 78.6609 37.517C79.0473 37.2102 79.3333 36.8068 79.5189 36.3068C79.7045 35.8068 79.7973 35.2652 79.7973 34.6818C79.7973 34.0985 79.7045 33.5549 79.5189 33.0511C79.3333 32.5473 79.0473 32.1402 78.6609 31.8295C78.2746 31.5189 77.7821 31.3636 77.1837 31.3636C76.5852 31.3636 76.0928 31.5189 75.7064 31.8295C75.32 32.1402 75.034 32.5473 74.8484 33.0511C74.6628 33.5549 74.57 34.0985 74.57 34.6818C74.57 35.2652 74.6628 35.8068 74.8484 36.3068C75.034 36.8068 75.32 37.2102 75.7064 37.517C76.0928 37.8239 76.5852 37.9773 77.1837 37.9773ZM82.7051 39V30.2727H84.0005V31.6364H84.1142C84.296 31.1705 84.5896 30.8087 84.9949 30.5511C85.4002 30.2898 85.8869 30.1591 86.4551 30.1591C87.0308 30.1591 87.51 30.2898 87.8926 30.5511C88.2789 30.8087 88.5801 31.1705 88.796 31.6364H88.8869C89.1104 31.1856 89.4456 30.8277 89.8926 30.5625C90.3396 30.2936 90.8755 30.1591 91.5005 30.1591C92.2808 30.1591 92.9191 30.4034 93.4153 30.892C93.9115 31.3769 94.1596 32.1326 94.1596 33.1591V39H92.8187V33.1591C92.8187 32.5152 92.6426 32.0549 92.2903 31.7784C91.938 31.5019 91.5233 31.3636 91.046 31.3636C90.4324 31.3636 89.957 31.5492 89.6199 31.9205C89.2827 32.2879 89.1142 32.7538 89.1142 33.3182V39H87.7505V33.0227C87.7505 32.5265 87.5896 32.1269 87.2676 31.8239C86.9456 31.517 86.5308 31.3636 86.0233 31.3636C85.6748 31.3636 85.349 31.4564 85.046 31.642C84.7467 31.8277 84.5043 32.0852 84.3187 32.4148C84.1369 32.7405 84.046 33.1174 84.046 33.5455V39H82.7051ZM101.631 35.4318V30.2727H102.972V39H101.631V37.5227H101.54C101.336 37.9659 101.018 38.3428 100.586 38.6534C100.154 38.9602 99.6086 39.1136 98.9495 39.1136C98.4041 39.1136 97.9192 38.9943 97.495 38.7557C97.0707 38.5133 96.7374 38.1496 96.495 37.6648C96.2525 37.1761 96.1313 36.5606 96.1313 35.8182V30.2727H97.4722V35.7273C97.4722 36.3636 97.6503 36.8712 98.0063 37.25C98.3662 37.6288 98.8245 37.8182 99.3813 37.8182C99.7147 37.8182 100.054 37.733 100.398 37.5625C100.747 37.392 101.039 37.1307 101.273 36.7784C101.512 36.4261 101.631 35.9773 101.631 35.4318ZM111.536 39.2045C110.983 39.2045 110.481 39.1004 110.031 38.892C109.58 38.6799 109.222 38.375 108.957 37.9773C108.692 37.5758 108.559 37.0909 108.559 36.5227C108.559 36.0227 108.658 35.6174 108.855 35.3068C109.052 34.9924 109.315 34.7462 109.644 34.5682C109.974 34.3902 110.338 34.2576 110.735 34.1705C111.137 34.0795 111.54 34.0076 111.945 33.9545C112.476 33.8864 112.906 33.8352 113.235 33.8011C113.569 33.7633 113.811 33.7008 113.963 33.6136C114.118 33.5265 114.195 33.375 114.195 33.1591V33.1136C114.195 32.553 114.042 32.1174 113.735 31.8068C113.432 31.4962 112.972 31.3409 112.355 31.3409C111.714 31.3409 111.213 31.4811 110.849 31.7614C110.485 32.0417 110.23 32.3409 110.082 32.6591L108.809 32.2045C109.036 31.6742 109.339 31.2614 109.718 30.9659C110.101 30.6667 110.517 30.4583 110.968 30.3409C111.423 30.2197 111.87 30.1591 112.309 30.1591C112.589 30.1591 112.911 30.1932 113.275 30.2614C113.642 30.3258 113.997 30.4602 114.338 30.6648C114.682 30.8693 114.968 31.178 115.195 31.5909C115.423 32.0038 115.536 32.5568 115.536 33.25V39H114.195V37.8182H114.127C114.036 38.0076 113.885 38.2102 113.673 38.4261C113.461 38.642 113.178 38.8258 112.826 38.9773C112.474 39.1288 112.044 39.2045 111.536 39.2045ZM111.741 38C112.271 38 112.718 37.8958 113.082 37.6875C113.449 37.4792 113.726 37.2102 113.911 36.8807C114.101 36.5511 114.195 36.2045 114.195 35.8409V34.6136C114.139 34.6818 114.014 34.7443 113.82 34.8011C113.631 34.8542 113.411 34.9015 113.161 34.9432C112.915 34.9811 112.675 35.0152 112.44 35.0455C112.209 35.072 112.021 35.0947 111.877 35.1136C111.529 35.1591 111.203 35.233 110.9 35.3352C110.601 35.4337 110.358 35.5833 110.173 35.7841C109.991 35.9811 109.9 36.25 109.9 36.5909C109.9 37.0568 110.072 37.4091 110.417 37.6477C110.766 37.8826 111.207 38 111.741 38ZM118.845 27.3636V39H117.504V27.3636H118.845ZM124.48 39.1818C123.639 39.1818 122.914 38.9962 122.304 38.625C121.698 38.25 121.23 37.7273 120.9 37.0568C120.574 36.3826 120.412 35.5985 120.412 34.7045C120.412 33.8106 120.574 33.0227 120.9 32.3409C121.23 31.6553 121.688 31.1212 122.275 30.7386C122.866 30.3523 123.556 30.1591 124.343 30.1591C124.798 30.1591 125.247 30.2348 125.69 30.3864C126.133 30.5379 126.537 30.7841 126.9 31.125C127.264 31.4621 127.554 31.9091 127.77 32.4659C127.985 33.0227 128.093 33.7083 128.093 34.5227V35.0909H121.366V33.9318H126.73C126.73 33.4394 126.631 33 126.434 32.6136C126.241 32.2273 125.965 31.9223 125.605 31.6989C125.249 31.4754 124.828 31.3636 124.343 31.3636C123.809 31.3636 123.347 31.4962 122.957 31.7614C122.571 32.0227 122.273 32.3636 122.065 32.7841C121.857 33.2045 121.753 33.6553 121.753 34.1364V34.9091C121.753 35.5682 121.866 36.1269 122.093 36.5852C122.324 37.0398 122.645 37.3864 123.054 37.625C123.463 37.8598 123.938 37.9773 124.48 37.9773C124.832 37.9773 125.15 37.928 125.434 37.8295C125.722 37.7273 125.97 37.5758 126.179 37.375C126.387 37.1705 126.548 36.9167 126.662 36.6136L127.957 36.9773C127.821 37.4167 127.592 37.803 127.27 38.1364C126.948 38.4659 126.55 38.7235 126.076 38.9091C125.603 39.0909 125.071 39.1818 124.48 39.1818ZM130.251 42.2727C130.024 42.2727 129.821 42.2538 129.643 42.2159C129.465 42.1818 129.342 42.1477 129.274 42.1136L129.615 40.9318C129.941 41.0152 130.228 41.0455 130.478 41.0227C130.728 41 130.95 40.8883 131.143 40.6875C131.34 40.4905 131.52 40.1705 131.683 39.7273L131.933 39.0455L128.706 30.2727H130.16L132.569 37.2273H132.66L135.069 30.2727H136.524L132.819 40.2727C132.653 40.7235 132.446 41.0966 132.2 41.392C131.954 41.6913 131.668 41.9129 131.342 42.0568C131.02 42.2008 130.657 42.2727 130.251 42.2727ZM139.064 35.8182L139.041 34.1591H139.314L143.132 30.2727H144.791L140.723 34.3864H140.609L139.064 35.8182ZM137.814 39V27.3636H139.155V39H137.814ZM143.359 39L139.95 34.6818L140.905 33.75L145.064 39H143.359ZM151.537 35.4318V30.2727H152.878V39H151.537V37.5227H151.446C151.242 37.9659 150.923 38.3428 150.492 38.6534C150.06 38.9602 149.514 39.1136 148.855 39.1136C148.31 39.1136 147.825 38.9943 147.401 38.7557C146.976 38.5133 146.643 38.1496 146.401 37.6648C146.158 37.1761 146.037 36.5606 146.037 35.8182V30.2727H147.378V35.7273C147.378 36.3636 147.556 36.8712 147.912 37.25C148.272 37.6288 148.73 37.8182 149.287 37.8182C149.62 37.8182 149.959 37.733 150.304 37.5625C150.652 37.392 150.944 37.1307 151.179 36.7784C151.418 36.4261 151.537 35.9773 151.537 35.4318ZM154.854 39V30.2727H156.149V31.6364H156.263C156.445 31.1705 156.738 30.8087 157.144 30.5511C157.549 30.2898 158.036 30.1591 158.604 30.1591C159.18 30.1591 159.659 30.2898 160.041 30.5511C160.428 30.8087 160.729 31.1705 160.945 31.6364H161.036C161.259 31.1856 161.594 30.8277 162.041 30.5625C162.488 30.2936 163.024 30.1591 163.649 30.1591C164.43 30.1591 165.068 30.4034 165.564 30.892C166.06 31.3769 166.308 32.1326 166.308 33.1591V39H164.967V33.1591C164.967 32.5152 164.791 32.0549 164.439 31.7784C164.087 31.5019 163.672 31.3636 163.195 31.3636C162.581 31.3636 162.106 31.5492 161.769 31.9205C161.431 32.2879 161.263 32.7538 161.263 33.3182V39H159.899V33.0227C159.899 32.5265 159.738 32.1269 159.416 31.8239C159.094 31.517 158.68 31.3636 158.172 31.3636C157.824 31.3636 157.498 31.4564 157.195 31.642C156.896 31.8277 156.653 32.0852 156.467 32.4148C156.286 32.7405 156.195 33.1174 156.195 33.5455V39H154.854Z" fill="white"/>
<path d="M182.513 30.7727V39.5H181.192V32.0938H181.141L179.053 33.4574V32.196L181.23 30.7727H182.513ZM184.808 39.5L188.618 31.9659V31.902H184.211V30.7727H189.981V31.9403L186.184 39.5H184.808ZM191.55 38.4176C191.317 38.4176 191.116 38.3352 190.949 38.1705C190.781 38.0028 190.697 37.8011 190.697 37.5653C190.697 37.3324 190.781 37.1335 190.949 36.9688C191.116 36.8011 191.317 36.7173 191.55 36.7173C191.782 36.7173 191.983 36.8011 192.15 36.9688C192.318 37.1335 192.402 37.3324 192.402 37.5653C192.402 37.7216 192.362 37.8651 192.282 37.9957C192.206 38.1236 192.104 38.2259 191.976 38.3026C191.848 38.3793 191.706 38.4176 191.55 38.4176ZM191.55 34.0455C191.317 34.0455 191.116 33.9631 190.949 33.7983C190.781 33.6307 190.697 33.429 190.697 33.1932C190.697 32.9602 190.781 32.7614 190.949 32.5966C191.116 32.429 191.317 32.3452 191.55 32.3452C191.782 32.3452 191.983 32.429 192.15 32.5966C192.318 32.7614 192.402 32.9602 192.402 33.1932C192.402 33.3494 192.362 33.4929 192.282 33.6236C192.206 33.7514 192.104 33.8537 191.976 33.9304C191.848 34.0071 191.706 34.0455 191.55 34.0455ZM193.731 39.5V38.5455L196.685 35.4858C197 35.1534 197.26 34.8622 197.464 34.6122C197.672 34.3594 197.827 34.1193 197.929 33.892C198.031 33.6648 198.082 33.4233 198.082 33.1676C198.082 32.8778 198.014 32.6278 197.878 32.4176C197.741 32.2045 197.555 32.0412 197.32 31.9276C197.084 31.8111 196.818 31.7528 196.523 31.7528C196.21 31.7528 195.937 31.8168 195.704 31.9446C195.471 32.0724 195.293 32.2528 195.168 32.4858C195.043 32.7187 194.98 32.9915 194.98 33.304H193.723C193.723 32.7727 193.845 32.3082 194.089 31.9105C194.334 31.5128 194.669 31.2045 195.095 30.9858C195.521 30.7642 196.006 30.6534 196.548 30.6534C197.096 30.6534 197.579 30.7628 197.997 30.9815C198.418 31.1974 198.746 31.4929 198.981 31.8679C199.217 32.2401 199.335 32.6605 199.335 33.1293C199.335 33.4531 199.274 33.7699 199.152 34.0795C199.033 34.3892 198.824 34.7344 198.525 35.1151C198.227 35.4929 197.812 35.9517 197.281 36.4915L195.547 38.3068V38.3707H199.476V39.5H193.731ZM203.769 39.6449C203.096 39.642 202.521 39.4645 202.043 39.1122C201.566 38.7599 201.201 38.2472 200.948 37.5739C200.695 36.9006 200.569 36.0895 200.569 35.1406C200.569 34.1946 200.695 33.3864 200.948 32.7159C201.204 32.0455 201.57 31.5341 202.048 31.1818C202.528 30.8295 203.102 30.6534 203.769 30.6534C204.437 30.6534 205.009 30.831 205.486 31.1861C205.964 31.5384 206.329 32.0497 206.582 32.7202C206.837 33.3878 206.965 34.1946 206.965 35.1406C206.965 36.0923 206.839 36.9048 206.586 37.5781C206.333 38.2486 205.968 38.7614 205.491 39.1165C205.013 39.4688 204.44 39.6449 203.769 39.6449ZM203.769 38.5071C204.36 38.5071 204.822 38.2188 205.154 37.642C205.489 37.0653 205.657 36.2315 205.657 35.1406C205.657 34.4162 205.58 33.804 205.427 33.304C205.276 32.8011 205.059 32.4205 204.775 32.1619C204.494 31.9006 204.158 31.7699 203.769 31.7699C203.181 31.7699 202.719 32.0597 202.384 32.6392C202.049 33.2187 201.88 34.0526 201.877 35.1406C201.877 35.8679 201.952 36.483 202.103 36.9858C202.256 37.4858 202.474 37.8651 202.755 38.1236C203.036 38.3793 203.374 38.5071 203.769 38.5071Z" fill="#D0D0D0"/>
<path d="M217.735 36.1733L218.676 37.1146L224.32 31.4709L225.263 32.4137L218.676 39.0002L214.434 34.7575L215.376 33.8147L216.793 35.2313L217.735 36.1733ZM217.736 34.2881L221.038 30.9863L221.978 31.9265L218.676 35.2283L217.736 34.2881ZM215.852 38.0582L214.91 39.0002L210.667 34.7575L211.61 33.8147L212.552 34.7568L212.551 34.7575L215.852 38.0582Z" fill="#D0D0D0"/>
<g filter="url(#filter0_d_971_3391)">
<g clip-path="url(#clip0_971_3391)">
<rect x="22" y="51" width="198" height="176" rx="12" fill="white"/>
<rect width="198" height="44" transform="translate(22 51)" fill="white"/>
<path d="M45.3337 78.3333L38.667 73L45.3337 67.6666V71C49.0155 71 52.0003 73.9848 52.0003 77.6666C52.0003 77.8484 51.9931 78.0285 51.9788 78.2066C51.004 76.3576 49.0924 75.0793 46.8757 75.0035L46.667 75H45.3336L45.3337 78.3333ZM44.0002 73.6666H45.3336L46.6897 73.6668L46.9213 73.671C47.7775 73.7002 48.6039 73.8776 49.3715 74.1822C48.3935 73.0499 46.9473 72.3333 45.3337 72.3333H44.0003V70.4408L40.8014 73L44.0003 75.5591L44.0002 73.6666Z" fill="#181818"/>
<path d="M66.8622 74.6989H68.3736L69.4375 76.0859L69.9396 76.7024L71.6349 78.9148H70.0639L68.9304 77.4382L68.5426 76.9013L66.8622 74.6989ZM71.9631 72.9091C71.9631 73.9962 71.7642 74.9309 71.3665 75.7131C70.9688 76.492 70.4235 77.0919 69.7308 77.5128C69.0414 77.9304 68.2576 78.1392 67.3793 78.1392C66.4976 78.1392 65.7105 77.9304 65.0178 77.5128C64.3284 77.0919 63.7848 76.4903 63.3871 75.7081C62.9893 74.9259 62.7905 73.9929 62.7905 72.9091C62.7905 71.822 62.9893 70.889 63.3871 70.1101C63.7848 69.3279 64.3284 68.728 65.0178 68.3104C65.7105 67.8894 66.4976 67.679 67.3793 67.679C68.2576 67.679 69.0414 67.8894 69.7308 68.3104C70.4235 68.728 70.9688 69.3279 71.3665 70.1101C71.7642 70.889 71.9631 71.822 71.9631 72.9091ZM70.4418 72.9091C70.4418 72.0805 70.3075 71.3828 70.0391 70.8161C69.7739 70.246 69.4093 69.8151 68.9453 69.5234C68.4846 69.2285 67.9626 69.081 67.3793 69.081C66.7926 69.081 66.2689 69.2285 65.8082 69.5234C65.3475 69.8151 64.983 70.246 64.7145 70.8161C64.4493 71.3828 64.3168 72.0805 64.3168 72.9091C64.3168 73.7377 64.4493 74.437 64.7145 75.0071C64.983 75.5739 65.3475 76.0047 65.8082 76.2997C66.2689 76.5914 66.7926 76.7372 67.3793 76.7372C67.9626 76.7372 68.4846 76.5914 68.9453 76.2997C69.4093 76.0047 69.7739 75.5739 70.0391 75.0071C70.3075 74.437 70.4418 73.7377 70.4418 72.9091ZM75.5614 78.169C75.0775 78.169 74.64 78.0795 74.2489 77.9006C73.8578 77.7183 73.5479 77.4548 73.3192 77.1101C73.0938 76.7654 72.9811 76.3428 72.9811 75.8423C72.9811 75.4115 73.064 75.0568 73.2297 74.7784C73.3954 74.5 73.6191 74.2796 73.9008 74.1172C74.1826 73.9548 74.4974 73.8321 74.8454 73.7493C75.1935 73.6664 75.5481 73.6035 75.9094 73.5604C76.3668 73.5073 76.738 73.4643 77.023 73.4311C77.308 73.3946 77.5152 73.3366 77.6445 73.2571C77.7737 73.1776 77.8383 73.0483 77.8383 72.8693V72.8345C77.8383 72.4003 77.7157 72.0639 77.4704 71.8253C77.2285 71.5866 76.8672 71.4673 76.3866 71.4673C75.8862 71.4673 75.4918 71.5784 75.2034 71.8004C74.9184 72.0192 74.7212 72.2628 74.6118 72.5312L73.2148 72.2131C73.3805 71.7491 73.6224 71.3745 73.9406 71.0895C74.2621 70.8011 74.6317 70.5923 75.0493 70.4631C75.4669 70.3305 75.9061 70.2642 76.3668 70.2642C76.6717 70.2642 76.9948 70.3007 77.3362 70.3736C77.6809 70.4432 78.0024 70.5724 78.3007 70.7614C78.6023 70.9503 78.8492 71.2204 79.0415 71.5717C79.2337 71.9197 79.3298 72.3722 79.3298 72.929V78H77.8781V76.956H77.8185C77.7223 77.1482 77.5782 77.3371 77.3859 77.5227C77.1937 77.7083 76.9468 77.8625 76.6452 77.9851C76.3436 78.1077 75.9823 78.169 75.5614 78.169ZM75.8845 76.9759C76.2955 76.9759 76.6468 76.8946 76.9385 76.7322C77.2335 76.5698 77.4572 76.3577 77.6097 76.0959C77.7654 75.8307 77.8433 75.5473 77.8433 75.2457V74.2614C77.7903 74.3144 77.6875 74.3641 77.5351 74.4105C77.3859 74.4536 77.2152 74.4917 77.023 74.5249C76.8308 74.5547 76.6435 74.5829 76.4612 74.6094C76.2789 74.6326 76.1265 74.6525 76.0038 74.669C75.7155 74.7055 75.452 74.7668 75.2133 74.853C74.978 74.9392 74.7891 75.0634 74.6466 75.2259C74.5074 75.3849 74.4378 75.5971 74.4378 75.8622C74.4378 76.2301 74.5737 76.5085 74.8454 76.6974C75.1172 76.883 75.4636 76.9759 75.8845 76.9759ZM81.556 80.8636C81.3339 80.8636 81.1317 80.8454 80.9494 80.8089C80.7671 80.7758 80.6312 80.7393 80.5417 80.6996L80.8997 79.4815C81.1715 79.5545 81.4134 79.5859 81.6256 79.576C81.8377 79.5661 82.0249 79.4865 82.1873 79.3374C82.3531 79.1882 82.4989 78.9446 82.6248 78.6065L82.8088 78.0994L80.0148 70.3636H81.6057L83.5396 76.2898H83.6192L85.5531 70.3636H87.149L84.002 79.0192C83.8561 79.4169 83.6705 79.7533 83.4452 80.0284C83.2198 80.3068 82.9513 80.5156 82.6398 80.6548C82.3282 80.794 81.9669 80.8636 81.556 80.8636ZM91.6906 70.3636V71.5568H87.5195V70.3636H91.6906ZM88.6381 68.5341H90.1246V75.7578C90.1246 76.0462 90.1677 76.2633 90.2538 76.4091C90.34 76.5516 90.4511 76.6494 90.5869 76.7024C90.7262 76.7521 90.877 76.777 91.0394 76.777C91.1587 76.777 91.2631 76.7687 91.3526 76.7521C91.4421 76.7356 91.5117 76.7223 91.5614 76.7124L91.8298 77.9403C91.7437 77.9735 91.621 78.0066 91.4619 78.0398C91.3029 78.0762 91.104 78.0961 90.8654 78.0994C90.4743 78.1061 90.1097 78.0365 89.7716 77.8906C89.4335 77.7448 89.1601 77.5194 88.9513 77.2145C88.7425 76.9096 88.6381 76.5268 88.6381 76.0661V68.5341ZM95.1373 78.169C94.6534 78.169 94.2159 78.0795 93.8248 77.9006C93.4337 77.7183 93.1238 77.4548 92.8951 77.1101C92.6697 76.7654 92.557 76.3428 92.557 75.8423C92.557 75.4115 92.6399 75.0568 92.8056 74.7784C92.9713 74.5 93.1951 74.2796 93.4768 74.1172C93.7585 73.9548 94.0734 73.8321 94.4214 73.7493C94.7694 73.6664 95.124 73.6035 95.4853 73.5604C95.9427 73.5073 96.3139 73.4643 96.5989 73.4311C96.884 73.3946 97.0911 73.3366 97.2204 73.2571C97.3497 73.1776 97.4143 73.0483 97.4143 72.8693V72.8345C97.4143 72.4003 97.2916 72.0639 97.0464 71.8253C96.8044 71.5866 96.4432 71.4673 95.9626 71.4673C95.4621 71.4673 95.0677 71.5784 94.7793 71.8004C94.4943 72.0192 94.2971 72.2628 94.1877 72.5312L92.7907 72.2131C92.9564 71.7491 93.1984 71.3745 93.5166 71.0895C93.8381 70.8011 94.2076 70.5923 94.6252 70.4631C95.0428 70.3305 95.482 70.2642 95.9427 70.2642C96.2476 70.2642 96.5708 70.3007 96.9122 70.3736C97.2568 70.4432 97.5783 70.5724 97.8766 70.7614C98.1783 70.9503 98.4252 71.2204 98.6174 71.5717C98.8096 71.9197 98.9058 72.3722 98.9058 72.929V78H97.4541V76.956H97.3944C97.2983 77.1482 97.1541 77.3371 96.9619 77.5227C96.7696 77.7083 96.5227 77.8625 96.2211 77.9851C95.9195 78.1077 95.5582 78.169 95.1373 78.169ZM95.4604 76.9759C95.8714 76.9759 96.2228 76.8946 96.5144 76.7322C96.8094 76.5698 97.0331 76.3577 97.1856 76.0959C97.3414 75.8307 97.4193 75.5473 97.4193 75.2457V74.2614C97.3662 74.3144 97.2635 74.3641 97.111 74.4105C96.9619 74.4536 96.7912 74.4917 96.5989 74.5249C96.4067 74.5547 96.2194 74.5829 96.0372 74.6094C95.8549 74.6326 95.7024 74.6525 95.5798 74.669C95.2914 74.7055 95.0279 74.7668 94.7893 74.853C94.554 74.9392 94.365 75.0634 94.2225 75.2259C94.0833 75.3849 94.0137 75.5971 94.0137 75.8622C94.0137 76.2301 94.1496 76.5085 94.4214 76.6974C94.6932 76.883 95.0395 76.9759 95.4604 76.9759ZM100.466 78V70.3636H101.902V71.5767H101.982C102.121 71.1657 102.367 70.8426 102.718 70.6072C103.072 70.3686 103.474 70.2493 103.921 70.2493C104.014 70.2493 104.123 70.2526 104.249 70.2592C104.378 70.2659 104.479 70.2741 104.552 70.2841V71.706C104.493 71.6894 104.387 71.6712 104.234 71.6513C104.082 71.6281 103.929 71.6165 103.777 71.6165C103.425 71.6165 103.112 71.6911 102.837 71.8402C102.565 71.986 102.35 72.1899 102.191 72.4517C102.032 72.7102 101.952 73.0052 101.952 73.3366V78H100.466ZM105.419 78V70.3636H106.905V78H105.419ZM106.169 69.1854C105.911 69.1854 105.689 69.0992 105.503 68.9268C105.321 68.7512 105.23 68.5424 105.23 68.3004C105.23 68.0552 105.321 67.8464 105.503 67.674C105.689 67.4983 105.911 67.4105 106.169 67.4105C106.428 67.4105 106.648 67.4983 106.831 67.674C107.016 67.8464 107.109 68.0552 107.109 68.3004C107.109 68.5424 107.016 68.7512 106.831 68.9268C106.648 69.0992 106.428 69.1854 106.169 69.1854ZM114.207 72.228L112.86 72.4666C112.804 72.2943 112.714 72.1302 112.592 71.9744C112.472 71.8187 112.31 71.6911 112.104 71.5916C111.899 71.4922 111.642 71.4425 111.334 71.4425C110.913 71.4425 110.562 71.5369 110.28 71.7259C109.998 71.9115 109.857 72.1518 109.857 72.4467C109.857 72.7019 109.952 72.9074 110.141 73.0632C110.33 73.219 110.634 73.3466 111.055 73.446L112.268 73.7244C112.971 73.8868 113.495 74.1371 113.839 74.4751C114.184 74.8132 114.357 75.2524 114.357 75.7926C114.357 76.25 114.224 76.6577 113.959 77.0156C113.697 77.3703 113.331 77.6487 112.86 77.8509C112.393 78.053 111.851 78.1541 111.234 78.1541C110.379 78.1541 109.682 77.9718 109.141 77.6072C108.601 77.2393 108.27 76.7173 108.147 76.0412L109.584 75.8224C109.673 76.197 109.857 76.4804 110.136 76.6726C110.414 76.8615 110.777 76.956 111.224 76.956C111.712 76.956 112.101 76.8549 112.393 76.6527C112.684 76.4472 112.83 76.197 112.83 75.902C112.83 75.6634 112.741 75.4628 112.562 75.3004C112.386 75.138 112.116 75.0154 111.751 74.9325L110.459 74.6491C109.746 74.4867 109.219 74.2282 108.878 73.8736C108.54 73.5189 108.371 73.0698 108.371 72.5263C108.371 72.0755 108.497 71.6811 108.749 71.343C109 71.005 109.348 70.7415 109.793 70.5526C110.237 70.3603 110.745 70.2642 111.319 70.2642C112.144 70.2642 112.794 70.4432 113.268 70.8011C113.742 71.1558 114.055 71.6314 114.207 72.228ZM117.057 73.4659V78H115.571V67.8182H117.038V71.6065H117.132C117.311 71.1955 117.584 70.8691 117.952 70.6271C118.32 70.3852 118.801 70.2642 119.394 70.2642C119.918 70.2642 120.375 70.3719 120.766 70.5874C121.161 70.8028 121.466 71.1243 121.681 71.5518C121.9 71.9761 122.009 72.5064 122.009 73.1428V78H120.523V73.3217C120.523 72.7616 120.378 72.3274 120.09 72.0192C119.802 71.7076 119.401 71.5518 118.887 71.5518C118.536 71.5518 118.221 71.6264 117.942 71.7756C117.667 71.9247 117.45 72.1435 117.291 72.4318C117.135 72.7169 117.057 73.0616 117.057 73.4659Z" fill="#181818"/>
<rect width="198" height="44" transform="translate(22 95)" fill="white"/>
<path d="M48.4853 115.384L47.5425 114.441L41.3333 120.651V121.593H42.2761L48.4853 115.384ZM49.4281 114.441L50.3709 113.499L49.4281 112.556L48.4853 113.499L49.4281 114.441ZM42.8284 122.927H40V120.098L48.9567 111.142C49.2171 110.881 49.6391 110.881 49.8995 111.142L51.7851 113.027C52.0455 113.288 52.0455 113.71 51.7851 113.97L42.8284 122.927Z" fill="#181818"/>
<path d="M62.6165 113.141V111.818H70.4964V113.141H67.3196V122H65.7884V113.141H62.6165ZM72.8817 122.169C72.3978 122.169 71.9603 122.08 71.5692 121.901C71.1781 121.718 70.8682 121.455 70.6395 121.11C70.4141 120.765 70.3014 120.343 70.3014 119.842C70.3014 119.411 70.3843 119.057 70.55 118.778C70.7157 118.5 70.9394 118.28 71.2212 118.117C71.5029 117.955 71.8177 117.832 72.1658 117.749C72.5138 117.666 72.8684 117.603 73.2297 117.56C73.6871 117.507 74.0583 117.464 74.3433 117.431C74.6284 117.395 74.8355 117.337 74.9648 117.257C75.094 117.178 75.1587 117.048 75.1587 116.869V116.835C75.1587 116.4 75.036 116.064 74.7908 115.825C74.5488 115.587 74.1875 115.467 73.707 115.467C73.2065 115.467 72.8121 115.578 72.5237 115.8C72.2387 116.019 72.0415 116.263 71.9321 116.531L70.5351 116.213C70.7008 115.749 70.9427 115.375 71.2609 115.089C71.5824 114.801 71.952 114.592 72.3696 114.463C72.7872 114.33 73.2264 114.264 73.6871 114.264C73.992 114.264 74.3151 114.301 74.6565 114.374C75.0012 114.443 75.3227 114.572 75.621 114.761C75.9226 114.95 76.1695 115.22 76.3618 115.572C76.554 115.92 76.6501 116.372 76.6501 116.929V122H75.1984V120.956H75.1388C75.0427 121.148 74.8985 121.337 74.7062 121.523C74.514 121.708 74.2671 121.862 73.9655 121.985C73.6639 122.108 73.3026 122.169 72.8817 122.169ZM73.2048 120.976C73.6158 120.976 73.9671 120.895 74.2588 120.732C74.5538 120.57 74.7775 120.358 74.93 120.096C75.0857 119.831 75.1636 119.547 75.1636 119.246V118.261C75.1106 118.314 75.0079 118.364 74.8554 118.411C74.7062 118.454 74.5356 118.492 74.3433 118.525C74.1511 118.555 73.9638 118.583 73.7815 118.609C73.5992 118.633 73.4468 118.652 73.3241 118.669C73.0358 118.705 72.7723 118.767 72.5337 118.853C72.2983 118.939 72.1094 119.063 71.9669 119.226C71.8277 119.385 71.7581 119.597 71.7581 119.862C71.7581 120.23 71.894 120.509 72.1658 120.697C72.4375 120.883 72.7839 120.976 73.2048 120.976ZM79.6966 117.466V122H78.2101V111.818H79.6767V115.607H79.7712C79.9501 115.196 80.2236 114.869 80.5915 114.627C80.9594 114.385 81.4399 114.264 82.0332 114.264C82.5569 114.264 83.0143 114.372 83.4054 114.587C83.7998 114.803 84.1047 115.124 84.3202 115.552C84.5389 115.976 84.6483 116.506 84.6483 117.143V122H83.1618V117.322C83.1618 116.762 83.0176 116.327 82.7292 116.019C82.4409 115.708 82.0399 115.552 81.5261 115.552C81.1748 115.552 80.8599 115.626 80.5815 115.776C80.3064 115.925 80.0893 116.143 79.9302 116.432C79.7745 116.717 79.6966 117.062 79.6966 117.466ZM86.2119 122V114.364H87.6487V115.577H87.7283C87.8675 115.166 88.1128 114.843 88.4641 114.607C88.8187 114.369 89.2198 114.249 89.6672 114.249C89.76 114.249 89.8694 114.253 89.9953 114.259C90.1246 114.266 90.2257 114.274 90.2986 114.284V115.706C90.2389 115.689 90.1329 115.671 89.9804 115.651C89.8279 115.628 89.6755 115.616 89.523 115.616C89.1717 115.616 88.8585 115.691 88.5834 115.84C88.3116 115.986 88.0962 116.19 87.9371 116.452C87.778 116.71 87.6985 117.005 87.6985 117.337V122H86.2119ZM91.165 122V114.364H92.6515V122H91.165ZM91.9157 113.185C91.6572 113.185 91.4351 113.099 91.2495 112.927C91.0672 112.751 90.9761 112.542 90.9761 112.3C90.9761 112.055 91.0672 111.846 91.2495 111.674C91.4351 111.498 91.6572 111.411 91.9157 111.411C92.1742 111.411 92.3946 111.498 92.5769 111.674C92.7625 111.846 92.8553 112.055 92.8553 112.3C92.8553 112.542 92.7625 112.751 92.5769 112.927C92.3946 113.099 92.1742 113.185 91.9157 113.185ZM94.2313 122V114.364H95.6681V115.577H95.7477C95.8869 115.166 96.1321 114.843 96.4835 114.607C96.8381 114.369 97.2391 114.249 97.6866 114.249C97.7794 114.249 97.8888 114.253 98.0147 114.259C98.144 114.266 98.2451 114.274 98.318 114.284V115.706C98.2583 115.689 98.1522 115.671 97.9998 115.651C97.8473 115.628 97.6949 115.616 97.5424 115.616C97.1911 115.616 96.8779 115.691 96.6028 115.84C96.331 115.986 96.1156 116.19 95.9565 116.452C95.7974 116.71 95.7178 117.005 95.7178 117.337V122H94.2313ZM100.671 111.818V122H99.1844V111.818H100.671ZM104.473 122.169C103.989 122.169 103.552 122.08 103.16 121.901C102.769 121.718 102.46 121.455 102.231 121.11C102.005 120.765 101.893 120.343 101.893 119.842C101.893 119.411 101.976 119.057 102.141 118.778C102.307 118.5 102.531 118.28 102.812 118.117C103.094 117.955 103.409 117.832 103.757 117.749C104.105 117.666 104.46 117.603 104.821 117.56C105.278 117.507 105.65 117.464 105.935 117.431C106.22 117.395 106.427 117.337 106.556 117.257C106.685 117.178 106.75 117.048 106.75 116.869V116.835C106.75 116.4 106.627 116.064 106.382 115.825C106.14 115.587 105.779 115.467 105.298 115.467C104.798 115.467 104.403 115.578 104.115 115.8C103.83 116.019 103.633 116.263 103.523 116.531L102.126 116.213C102.292 115.749 102.534 115.375 102.852 115.089C103.174 114.801 103.543 114.592 103.961 114.463C104.379 114.33 104.818 114.264 105.278 114.264C105.583 114.264 105.906 114.301 106.248 114.374C106.593 114.443 106.914 114.572 107.212 114.761C107.514 114.95 107.761 115.22 107.953 115.572C108.145 115.92 108.241 116.372 108.241 116.929V122H106.79V120.956H106.73C106.634 121.148 106.49 121.337 106.298 121.523C106.105 121.708 105.858 121.862 105.557 121.985C105.255 122.108 104.894 122.169 104.473 122.169ZM104.796 120.976C105.207 120.976 105.558 120.895 105.85 120.732C106.145 120.57 106.369 120.358 106.521 120.096C106.677 119.831 106.755 119.547 106.755 119.246V118.261C106.702 118.314 106.599 118.364 106.447 118.411C106.298 118.454 106.127 118.492 105.935 118.525C105.742 118.555 105.555 118.583 105.373 118.609C105.191 118.633 105.038 118.652 104.915 118.669C104.627 118.705 104.364 118.767 104.125 118.853C103.89 118.939 103.701 119.063 103.558 119.226C103.419 119.385 103.349 119.597 103.349 119.862C103.349 120.23 103.485 120.509 103.757 120.697C104.029 120.883 104.375 120.976 104.796 120.976ZM115.524 116.228L114.176 116.467C114.12 116.294 114.031 116.13 113.908 115.974C113.789 115.819 113.626 115.691 113.421 115.592C113.215 115.492 112.958 115.442 112.65 115.442C112.229 115.442 111.878 115.537 111.596 115.726C111.314 115.911 111.174 116.152 111.174 116.447C111.174 116.702 111.268 116.907 111.457 117.063C111.646 117.219 111.951 117.347 112.372 117.446L113.585 117.724C114.287 117.887 114.811 118.137 115.156 118.475C115.5 118.813 115.673 119.252 115.673 119.793C115.673 120.25 115.54 120.658 115.275 121.016C115.013 121.37 114.647 121.649 114.176 121.851C113.709 122.053 113.167 122.154 112.551 122.154C111.696 122.154 110.998 121.972 110.458 121.607C109.917 121.239 109.586 120.717 109.463 120.041L110.9 119.822C110.99 120.197 111.174 120.48 111.452 120.673C111.73 120.862 112.093 120.956 112.541 120.956C113.028 120.956 113.417 120.855 113.709 120.653C114.001 120.447 114.147 120.197 114.147 119.902C114.147 119.663 114.057 119.463 113.878 119.3C113.702 119.138 113.432 119.015 113.068 118.933L111.775 118.649C111.063 118.487 110.536 118.228 110.194 117.874C109.856 117.519 109.687 117.07 109.687 116.526C109.687 116.076 109.813 115.681 110.065 115.343C110.317 115.005 110.665 114.741 111.109 114.553C111.553 114.36 112.062 114.264 112.635 114.264C113.46 114.264 114.11 114.443 114.584 114.801C115.058 115.156 115.371 115.631 115.524 116.228ZM118.374 117.466V122H116.887V111.818H118.354V115.607H118.448C118.627 115.196 118.901 114.869 119.269 114.627C119.637 114.385 120.117 114.264 120.71 114.264C121.234 114.264 121.691 114.372 122.083 114.587C122.477 114.803 122.782 115.124 122.997 115.552C123.216 115.976 123.325 116.506 123.325 117.143V122H121.839V117.322C121.839 116.762 121.695 116.327 121.406 116.019C121.118 115.708 120.717 115.552 120.203 115.552C119.852 115.552 119.537 115.626 119.259 115.776C118.984 115.925 118.767 116.143 118.607 116.432C118.452 116.717 118.374 117.062 118.374 117.466Z" fill="#181818"/>
<rect width="198" height="44" transform="translate(22 139)" fill="white"/>
<path d="M42.6665 157V155C42.6665 154.632 42.965 154.333 43.3332 154.333H51.3332C51.7014 154.333 51.9999 154.632 51.9999 155V164.333C51.9999 164.702 51.7014 165 51.3332 165H49.3332V166.999C49.3332 167.368 49.0333 167.667 48.662 167.667H40.6711C40.3004 167.667 40 167.37 40 166.999L40.0017 157.667C40.0018 157.299 40.3018 157 40.6729 157H42.6665ZM41.3349 158.333L41.3335 166.333H47.9999V158.333H41.3349ZM43.9999 157H49.3332V163.667H50.6665V155.667H43.9999V157Z" fill="#181818"/>
<path d="M71.3366 155.818V166H69.9247L64.7493 158.533H64.6548V166H63.1186V155.818H64.5405L69.7209 163.295H69.8153V155.818H71.3366ZM77.8756 162.833V158.364H79.3671V166H77.9055V164.678H77.8259C77.6503 165.085 77.3685 165.425 76.9807 165.697C76.5963 165.965 76.1173 166.099 75.544 166.099C75.0534 166.099 74.6192 165.992 74.2414 165.776C73.8669 165.558 73.5719 165.234 73.3565 164.807C73.1443 164.379 73.0383 163.851 73.0383 163.221V158.364H74.5248V163.042C74.5248 163.562 74.669 163.977 74.9573 164.285C75.2457 164.593 75.6202 164.747 76.0809 164.747C76.3593 164.747 76.636 164.678 76.9111 164.538C77.1896 164.399 77.4199 164.189 77.6022 163.907C77.7878 163.625 77.8789 163.267 77.8756 162.833ZM86.6667 160.228L85.3194 160.467C85.2631 160.294 85.1736 160.13 85.051 159.974C84.9317 159.819 84.7693 159.691 84.5638 159.592C84.3583 159.492 84.1014 159.442 83.7932 159.442C83.3722 159.442 83.0209 159.537 82.7392 159.726C82.4575 159.911 82.3166 160.152 82.3166 160.447C82.3166 160.702 82.4111 160.907 82.6 161.063C82.7889 161.219 83.0938 161.347 83.5148 161.446L84.7278 161.724C85.4305 161.887 85.9542 162.137 86.2988 162.475C86.6435 162.813 86.8159 163.252 86.8159 163.793C86.8159 164.25 86.6833 164.658 86.4182 165.016C86.1563 165.37 85.7901 165.649 85.3194 165.851C84.8521 166.053 84.3102 166.154 83.6937 166.154C82.8386 166.154 82.1409 165.972 81.6007 165.607C81.0604 165.239 80.729 164.717 80.6064 164.041L82.0432 163.822C82.1327 164.197 82.3166 164.48 82.595 164.673C82.8734 164.862 83.2363 164.956 83.6838 164.956C84.171 164.956 84.5604 164.855 84.8521 164.653C85.1438 164.447 85.2896 164.197 85.2896 163.902C85.2896 163.663 85.2001 163.463 85.0212 163.3C84.8455 163.138 84.5754 163.015 84.2108 162.933L82.9182 162.649C82.2056 162.487 81.6786 162.228 81.3372 161.874C80.9991 161.519 80.8301 161.07 80.8301 160.526C80.8301 160.076 80.956 159.681 81.2079 159.343C81.4598 159.005 81.8078 158.741 82.252 158.553C82.6961 158.36 83.2049 158.264 83.7783 158.264C84.6035 158.264 85.2532 158.443 85.7271 158.801C86.2011 159.156 86.5143 159.631 86.6667 160.228ZM89.2036 158.364L90.889 161.337L92.5893 158.364H94.215L91.8336 162.182L94.2349 166H92.6091L90.889 163.146L89.1738 166H87.5431L89.9195 162.182L87.5729 158.364H89.2036ZM97.5299 166.169C97.046 166.169 96.6085 166.08 96.2174 165.901C95.8263 165.718 95.5164 165.455 95.2877 165.11C95.0623 164.765 94.9496 164.343 94.9496 163.842C94.9496 163.411 95.0325 163.057 95.1982 162.778C95.3639 162.5 95.5876 162.28 95.8694 162.117C96.1511 161.955 96.466 161.832 96.814 161.749C97.162 161.666 97.5166 161.603 97.8779 161.56C98.3353 161.507 98.7065 161.464 98.9915 161.431C99.2766 161.395 99.4837 161.337 99.613 161.257C99.7422 161.178 99.8069 161.048 99.8069 160.869V160.835C99.8069 160.4 99.6842 160.064 99.439 159.825C99.197 159.587 98.8357 159.467 98.3552 159.467C97.8547 159.467 97.4603 159.578 97.1719 159.8C96.8869 160.019 96.6897 160.263 96.5803 160.531L95.1833 160.213C95.349 159.749 95.591 159.375 95.9091 159.089C96.2306 158.801 96.6002 158.592 97.0178 158.463C97.4354 158.33 97.8746 158.264 98.3353 158.264C98.6402 158.264 98.9633 158.301 99.3047 158.374C99.6494 158.443 99.9709 158.572 100.269 158.761C100.571 158.95 100.818 159.22 101.01 159.572C101.202 159.92 101.298 160.372 101.298 160.929V166H99.8466V164.956H99.787C99.6909 165.148 99.5467 165.337 99.3544 165.523C99.1622 165.708 98.9153 165.862 98.6137 165.985C98.3121 166.108 97.9508 166.169 97.5299 166.169ZM97.853 164.976C98.264 164.976 98.6153 164.895 98.907 164.732C99.202 164.57 99.4257 164.358 99.5782 164.096C99.7339 163.831 99.8118 163.547 99.8118 163.246V162.261C99.7588 162.314 99.6561 162.364 99.5036 162.411C99.3544 162.454 99.1838 162.492 98.9915 162.525C98.7993 162.555 98.612 162.583 98.4297 162.609C98.2474 162.633 98.095 162.652 97.9723 162.669C97.684 162.705 97.4205 162.767 97.1819 162.853C96.9465 162.939 96.7576 163.063 96.6151 163.226C96.4759 163.385 96.4063 163.597 96.4063 163.862C96.4063 164.23 96.5422 164.509 96.814 164.697C97.0857 164.883 97.4321 164.976 97.853 164.976ZM109.36 166.154C108.644 166.154 108.019 165.99 107.486 165.662C106.952 165.334 106.538 164.875 106.243 164.285C105.948 163.695 105.8 163.005 105.8 162.217C105.8 161.424 105.948 160.732 106.243 160.138C106.538 159.545 106.952 159.085 107.486 158.756C108.019 158.428 108.644 158.264 109.36 158.264C110.076 158.264 110.701 158.428 111.234 158.756C111.768 159.085 112.182 159.545 112.477 160.138C112.772 160.732 112.92 161.424 112.92 162.217C112.92 163.005 112.772 163.695 112.477 164.285C112.182 164.875 111.768 165.334 111.234 165.662C110.701 165.99 110.076 166.154 109.36 166.154ZM109.365 164.906C109.829 164.906 110.213 164.784 110.518 164.538C110.823 164.293 111.049 163.967 111.194 163.559C111.344 163.151 111.418 162.702 111.418 162.212C111.418 161.724 111.344 161.277 111.194 160.869C111.049 160.458 110.823 160.129 110.518 159.88C110.213 159.631 109.829 159.507 109.365 159.507C108.898 159.507 108.51 159.631 108.202 159.88C107.897 160.129 107.67 160.458 107.52 160.869C107.375 161.277 107.302 161.724 107.302 162.212C107.302 162.702 107.375 163.151 107.52 163.559C107.67 163.967 107.897 164.293 108.202 164.538C108.51 164.784 108.898 164.906 109.365 164.906ZM115.645 155.818V166H114.159V155.818H115.645ZM117.225 166V158.364H118.712V166H117.225ZM117.976 157.185C117.717 157.185 117.495 157.099 117.31 156.927C117.127 156.751 117.036 156.542 117.036 156.3C117.036 156.055 117.127 155.846 117.31 155.674C117.495 155.498 117.717 155.411 117.976 155.411C118.234 155.411 118.455 155.498 118.637 155.674C118.823 155.846 118.916 156.055 118.916 156.3C118.916 156.542 118.823 156.751 118.637 156.927C118.455 157.099 118.234 157.185 117.976 157.185ZM126.014 160.228L124.667 160.467C124.61 160.294 124.521 160.13 124.398 159.974C124.279 159.819 124.116 159.691 123.911 159.592C123.705 159.492 123.449 159.442 123.14 159.442C122.719 159.442 122.368 159.537 122.086 159.726C121.805 159.911 121.664 160.152 121.664 160.447C121.664 160.702 121.758 160.907 121.947 161.063C122.136 161.219 122.441 161.347 122.862 161.446L124.075 161.724C124.778 161.887 125.301 162.137 125.646 162.475C125.991 162.813 126.163 163.252 126.163 163.793C126.163 164.25 126.03 164.658 125.765 165.016C125.503 165.37 125.137 165.649 124.667 165.851C124.199 166.053 123.657 166.154 123.041 166.154C122.186 166.154 121.488 165.972 120.948 165.607C120.408 165.239 120.076 164.717 119.953 164.041L121.39 163.822C121.48 164.197 121.664 164.48 121.942 164.673C122.221 164.862 122.583 164.956 123.031 164.956C123.518 164.956 123.908 164.855 124.199 164.653C124.491 164.447 124.637 164.197 124.637 163.902C124.637 163.663 124.547 163.463 124.368 163.3C124.193 163.138 123.922 163.015 123.558 162.933L122.265 162.649C121.553 162.487 121.026 162.228 120.684 161.874C120.346 161.519 120.177 161.07 120.177 160.526C120.177 160.076 120.303 159.681 120.555 159.343C120.807 159.005 121.155 158.741 121.599 158.553C122.043 158.36 122.552 158.264 123.125 158.264C123.951 158.264 124.6 158.443 125.074 158.801C125.548 159.156 125.861 159.631 126.014 160.228ZM128.864 161.466V166H127.377V155.818H128.844V159.607H128.938C129.117 159.196 129.391 158.869 129.759 158.627C130.127 158.385 130.607 158.264 131.201 158.264C131.724 158.264 132.182 158.372 132.573 158.587C132.967 158.803 133.272 159.124 133.488 159.552C133.706 159.976 133.816 160.506 133.816 161.143V166H132.329V161.322C132.329 160.762 132.185 160.327 131.897 160.019C131.608 159.708 131.207 159.552 130.693 159.552C130.342 159.552 130.027 159.626 129.749 159.776C129.474 159.925 129.257 160.143 129.098 160.432C128.942 160.717 128.864 161.062 128.864 161.466Z" fill="#181818"/>
<rect width="198" height="44" transform="translate(22 183)" fill="white"/>
<path d="M49.333 201H52.6663V202.333H51.333V211C51.333 211.368 51.0345 211.667 50.6663 211.667H41.333C40.9648 211.667 40.6663 211.368 40.6663 211V202.333H39.333V201H42.6663V199C42.6663 198.632 42.9648 198.333 43.333 198.333H48.6663C49.0345 198.333 49.333 198.632 49.333 199V201ZM49.9997 202.333H41.9997V210.333H49.9997V202.333ZM43.9997 204.333H45.333V208.333H43.9997V204.333ZM46.6663 204.333H47.9997V208.333H46.6663V204.333ZM43.9997 199.667V201H47.9997V199.667H43.9997Z" fill="#181818"/>
<path d="M71.9631 204.909C71.9631 205.996 71.7642 206.931 71.3665 207.713C70.9688 208.492 70.4235 209.092 69.7308 209.513C69.0414 209.93 68.2576 210.139 67.3793 210.139C66.4976 210.139 65.7105 209.93 65.0178 209.513C64.3284 209.092 63.7848 208.49 63.3871 207.708C62.9893 206.926 62.7905 205.993 62.7905 204.909C62.7905 203.822 62.9893 202.889 63.3871 202.11C63.7848 201.328 64.3284 200.728 65.0178 200.31C65.7105 199.889 66.4976 199.679 67.3793 199.679C68.2576 199.679 69.0414 199.889 69.7308 200.31C70.4235 200.728 70.9688 201.328 71.3665 202.11C71.7642 202.889 71.9631 203.822 71.9631 204.909ZM70.4418 204.909C70.4418 204.08 70.3075 203.383 70.0391 202.816C69.7739 202.246 69.4093 201.815 68.9453 201.523C68.4846 201.228 67.9626 201.081 67.3793 201.081C66.7926 201.081 66.2689 201.228 65.8082 201.523C65.3475 201.815 64.983 202.246 64.7145 202.816C64.4493 203.383 64.3168 204.08 64.3168 204.909C64.3168 205.738 64.4493 206.437 64.7145 207.007C64.983 207.574 65.3475 208.005 65.8082 208.3C66.2689 208.591 66.7926 208.737 67.3793 208.737C67.9626 208.737 68.4846 208.591 68.9453 208.3C69.4093 208.005 69.7739 207.574 70.0391 207.007C70.3075 206.437 70.4418 205.738 70.4418 204.909ZM72.5672 203V202.045C72.5672 201.764 72.6202 201.467 72.7263 201.156C72.8324 200.844 72.9799 200.546 73.1688 200.261C73.3577 199.976 73.5798 199.732 73.835 199.53L74.5708 200.057C74.3686 200.352 74.1962 200.66 74.0537 200.982C73.9112 201.303 73.8399 201.653 73.8399 202.031V203H72.5672ZM78.6513 210.154C77.9122 210.154 77.2758 209.987 76.7422 209.652C76.2119 209.314 75.8042 208.848 75.5192 208.255C75.2342 207.662 75.0916 206.982 75.0916 206.217C75.0916 205.441 75.2375 204.757 75.5291 204.163C75.8208 203.567 76.2318 203.101 76.7621 202.766C77.2924 202.432 77.9172 202.264 78.6364 202.264C79.2164 202.264 79.7334 202.372 80.1875 202.587C80.6416 202.799 81.0078 203.098 81.2862 203.482C81.568 203.867 81.7353 204.316 81.7884 204.83H80.3416C80.2621 204.472 80.0798 204.163 79.7948 203.905C79.513 203.646 79.1352 203.517 78.6612 203.517C78.2469 203.517 77.884 203.626 77.5725 203.845C77.2642 204.061 77.0239 204.369 76.8516 204.77C76.6792 205.168 76.5931 205.638 76.5931 206.182C76.5931 206.739 76.6776 207.219 76.8466 207.624C77.0156 208.028 77.2543 208.341 77.5625 208.563C77.8741 208.785 78.2403 208.896 78.6612 208.896C78.943 208.896 79.1982 208.845 79.4269 208.742C79.6589 208.636 79.8528 208.485 80.0085 208.29C80.1676 208.094 80.2787 207.859 80.3416 207.584H81.7884C81.7353 208.078 81.5746 208.518 81.3061 208.906C81.0377 209.294 80.6781 209.599 80.2273 209.821C79.7799 210.043 79.2545 210.154 78.6513 210.154ZM84.4445 205.466V210H82.958V199.818H84.4247V203.607H84.5191C84.6981 203.196 84.9715 202.869 85.3394 202.627C85.7073 202.385 86.1879 202.264 86.7812 202.264C87.3049 202.264 87.7623 202.372 88.1534 202.587C88.5478 202.803 88.8527 203.124 89.0681 203.552C89.2869 203.976 89.3962 204.506 89.3962 205.143V210H87.9097V205.322C87.9097 204.762 87.7656 204.327 87.4772 204.019C87.1889 203.708 86.7878 203.552 86.2741 203.552C85.9228 203.552 85.6079 203.626 85.3295 203.776C85.0544 203.925 84.8373 204.143 84.6782 204.432C84.5224 204.717 84.4445 205.062 84.4445 205.466ZM90.9599 210V202.364H92.4464V210H90.9599ZM91.7106 201.185C91.4521 201.185 91.23 201.099 91.0444 200.927C90.8621 200.751 90.771 200.542 90.771 200.3C90.771 200.055 90.8621 199.846 91.0444 199.674C91.23 199.498 91.4521 199.411 91.7106 199.411C91.9691 199.411 92.1896 199.498 92.3718 199.674C92.5575 199.846 92.6503 200.055 92.6503 200.3C92.6503 200.542 92.5575 200.751 92.3718 200.927C92.1896 201.099 91.9691 201.185 91.7106 201.185ZM94.0262 210V202.364H95.463V203.577H95.5426C95.6818 203.166 95.927 202.843 96.2784 202.607C96.633 202.369 97.0341 202.249 97.4815 202.249C97.5743 202.249 97.6837 202.253 97.8096 202.259C97.9389 202.266 98.04 202.274 98.1129 202.284V203.706C98.0532 203.689 97.9472 203.671 97.7947 203.651C97.6422 203.628 97.4898 203.616 97.3373 203.616C96.986 203.616 96.6728 203.691 96.3977 203.84C96.1259 203.986 95.9105 204.19 95.7514 204.452C95.5923 204.71 95.5127 205.005 95.5127 205.337V210H94.0262ZM98.9793 210V202.364H100.466V210H98.9793ZM99.73 201.185C99.4715 201.185 99.2494 201.099 99.0638 200.927C98.8815 200.751 98.7904 200.542 98.7904 200.3C98.7904 200.055 98.8815 199.846 99.0638 199.674C99.2494 199.498 99.4715 199.411 99.73 199.411C99.9885 199.411 100.209 199.498 100.391 199.674C100.577 199.846 100.67 200.055 100.67 200.3C100.67 200.542 100.577 200.751 100.391 200.927C100.209 201.099 99.9885 201.185 99.73 201.185ZM107.768 204.228L106.421 204.467C106.364 204.294 106.275 204.13 106.152 203.974C106.033 203.819 105.87 203.691 105.665 203.592C105.459 203.492 105.203 203.442 104.894 203.442C104.473 203.442 104.122 203.537 103.84 203.726C103.559 203.911 103.418 204.152 103.418 204.447C103.418 204.702 103.512 204.907 103.701 205.063C103.89 205.219 104.195 205.347 104.616 205.446L105.829 205.724C106.532 205.887 107.055 206.137 107.4 206.475C107.745 206.813 107.917 207.252 107.917 207.793C107.917 208.25 107.784 208.658 107.519 209.016C107.258 209.37 106.891 209.649 106.421 209.851C105.953 210.053 105.411 210.154 104.795 210.154C103.94 210.154 103.242 209.972 102.702 209.607C102.162 209.239 101.83 208.717 101.708 208.041L103.144 207.822C103.234 208.197 103.418 208.48 103.696 208.673C103.975 208.862 104.338 208.956 104.785 208.956C105.272 208.956 105.662 208.855 105.953 208.653C106.245 208.447 106.391 208.197 106.391 207.902C106.391 207.663 106.301 207.463 106.122 207.3C105.947 207.138 105.677 207.015 105.312 206.933L104.019 206.649C103.307 206.487 102.78 206.228 102.438 205.874C102.1 205.519 101.931 205.07 101.931 204.526C101.931 204.076 102.057 203.681 102.309 203.343C102.561 203.005 102.909 202.741 103.353 202.553C103.797 202.36 104.306 202.264 104.879 202.264C105.705 202.264 106.354 202.443 106.828 202.801C107.302 203.156 107.615 203.631 107.768 204.228ZM110.618 205.466V210H109.131V199.818H110.598V203.607H110.693C110.872 203.196 111.145 202.869 111.513 202.627C111.881 202.385 112.361 202.264 112.955 202.264C113.478 202.264 113.936 202.372 114.327 202.587C114.721 202.803 115.026 203.124 115.242 203.552C115.46 203.976 115.57 204.506 115.57 205.143V210H114.083V205.322C114.083 204.762 113.939 204.327 113.651 204.019C113.362 203.708 112.961 203.552 112.448 203.552C112.096 203.552 111.781 203.626 111.503 203.776C111.228 203.925 111.011 204.143 110.852 204.432C110.696 204.717 110.618 205.062 110.618 205.466Z" fill="#181818"/>
</g>
</g>
<defs>
<filter id="filter0_d_971_3391" x="0" y="34" width="242" height="220" filterUnits="userSpaceOnUse" color-interpolation-filters="sRGB">
<feFlood flood-opacity="0" result="BackgroundImageFix"/>
<feColorMatrix in="SourceAlpha" type="matrix" values="0 0 0 0 0 0 0 0 0 0 0 0 0 0 0 0 0 0 127 0" result="hardAlpha"/>
<feOffset dy="5"/>
<feGaussianBlur stdDeviation="11"/>
<feComposite in2="hardAlpha" operator="out"/>
<feColorMatrix type="matrix" values="0 0 0 0 0.412015 0 0 0 0 0.412015 0 0 0 0 0.412015 0 0 0 0.2 0"/>
<feBlend mode="normal" in2="BackgroundImageFix" result="effect1_dropShadow_971_3391"/>
<feBlend mode="normal" in="SourceGraphic" in2="effect1_dropShadow_971_3391" result="shape"/>
</filter>
<clipPath id="clip0_971_3391">
<rect x="22" y="51" width="198" height="176" rx="12" fill="white"/>
</clipPath>
</defs>
</svg>
